<?xml version="1.0" encoding="UTF-8"?>
<svg width="700pt" height="700pt" version="1.1" viewBox="0 0 700 700" fill="#fff" xmlns="http://www.w3.org/2000/svg">
 <g>
  <path d="m210 105c-9.6641 0-17.5 7.8359-17.5 17.5v105c0 9.6641 7.8359 17.5 17.5 17.5h140c9.6641 0 17.5-7.8359 17.5-17.5v-105c0-9.6641-7.8359-17.5-17.5-17.5zm17.5 105v-70h105v70z" fill-rule="evenodd"/>
  <path d="m402.5 245c0-9.6641 7.8359-17.5 17.5-17.5h70c9.6641 0 17.5 7.8359 17.5 17.5v157.5c0 9.6641-7.8359 17.5-17.5 17.5h-70c-9.6641 0-17.5-7.8359-17.5-17.5zm35 17.5v122.5h35v-122.5z" fill-rule="evenodd"/>
  <path d="m210 472.5c-9.6641 0-17.5 7.8359-17.5 17.5s7.8359 17.5 17.5 17.5h280c9.6641 0 17.5-7.8359 17.5-17.5s-7.8359-17.5-17.5-17.5z"/>
  <path d="m402.5 175c0-9.6641 7.8359-17.5 17.5-17.5h70c9.6641 0 17.5 7.8359 17.5 17.5s-7.8359 17.5-17.5 17.5h-70c-9.6641 0-17.5-7.8359-17.5-17.5z"/>
  <path d="m420 105c-9.6641 0-17.5 7.8359-17.5 17.5s7.8359 17.5 17.5 17.5h70c9.6641 0 17.5-7.8359 17.5-17.5s-7.8359-17.5-17.5-17.5z"/>
  <path d="m192.5 297.5c0-9.6641 7.8359-17.5 17.5-17.5h140c9.6641 0 17.5 7.8359 17.5 17.5s-7.8359 17.5-17.5 17.5h-140c-9.6641 0-17.5-7.8359-17.5-17.5z"/>
  <path d="m210 332.5c-9.6641 0-17.5 7.8359-17.5 17.5s7.8359 17.5 17.5 17.5h140c9.6641 0 17.5-7.8359 17.5-17.5s-7.8359-17.5-17.5-17.5z"/>
  <path d="m192.5 402.5c0-9.6641 7.8359-17.5 17.5-17.5h140c9.6641 0 17.5 7.8359 17.5 17.5s-7.8359 17.5-17.5 17.5h-140c-9.6641 0-17.5-7.8359-17.5-17.5z"/>
  <path d="m175 0c-28.996 0-52.5 23.504-52.5 52.5v455c0 28.996 23.504 52.5 52.5 52.5h350c28.996 0 52.5-23.504 52.5-52.5v-455c0-28.996-23.504-52.5-52.5-52.5zm0 35c-9.6641 0-17.5 7.8359-17.5 17.5v455c0 9.6641 7.8359 17.5 17.5 17.5h350c9.6641 0 17.5-7.8359 17.5-17.5v-455c0-9.6641-7.8359-17.5-17.5-17.5h-39.164c-1.5234 0-3.0391 0.19922-4.5078 0.58984l-56.762 15.137c-4.4141 1.1758-8.9609 1.7734-13.527 1.7734h-122.08c-4.5664 0-9.1133-0.59766-13.527-1.7734l-56.762-15.137c-1.4688-0.39062-2.9844-0.58984-4.5078-0.58984z" fill-rule="evenodd"/>
 </g>
</svg>
