<?xml version="1.0" encoding="UTF-8"?>
<svg width="700pt" height="700pt" version="1.1" fill="#fff" viewBox="0 0 700 700" xmlns="http://www.w3.org/2000/svg" xmlns:xlink="http://www.w3.org/1999/xlink">
 <g>
  <path d="m516.88 140.84-99.68-99.793c-7.8203-7.7969-18.41-12.188-29.457-12.207h-175.61c-10.938 0.015625-21.426 4.3594-29.168 12.082-7.7461 7.7227-12.117 18.195-12.16 29.133v420c0.042969 10.918 4.3984 21.375 12.121 29.098 7.7188 7.7188 18.176 12.074 29.094 12.121h275.86c10.957-0.015626 21.461-4.375 29.207-12.121 7.75-7.75 12.105-18.254 12.121-29.207v-319.65c-0.007813-11.07-4.4414-21.68-12.32-29.457zm-244.89-73.641c17.988-0.058594 35.266 7.0312 48.023 19.711 12.762 12.68 19.961 29.91 20.016 47.898 0.054688 17.992-7.0391 35.266-19.723 48.02-12.684 12.758-29.918 19.953-47.906 20.004-17.988 0.050781-35.262-7.0508-48.016-19.738-12.75-12.688-19.941-29.922-19.988-47.91-0.042969-17.977 7.0508-35.234 19.727-47.98 12.672-12.75 29.891-19.945 47.867-20.004zm-61.992 313.6c0-4.3359 1.7227-8.4961 4.7891-11.562 3.0664-3.0664 7.2266-4.7891 11.562-4.7891h117.6c5.8398 0 11.238 3.1172 14.16 8.1758s2.9219 11.293 0 16.352c-2.9219 5.0586-8.3203 8.1758-14.16 8.1758h-117.6c-4.3359 0-8.4961-1.7227-11.562-4.7891-3.0664-3.0664-4.7891-7.2266-4.7891-11.562zm263.65-39.648h-247.3c-5.8398 0-11.238-3.1172-14.16-8.1758-2.9219-5.0586-2.9219-11.293 0-16.352s8.3203-8.1758 14.16-8.1758h247.3c5.8398 0 11.238 3.1172 14.16 8.1758s2.9219 11.293 0 16.352c-2.9219 5.0586-8.3203 8.1758-14.16 8.1758zm0-56h-247.3c-5.8398 0-11.238-3.1172-14.16-8.1758-2.9219-5.0586-2.9219-11.293 0-16.352s8.3203-8.1758 14.16-8.1758h247.3c5.8398 0 11.238 3.1172 14.16 8.1758s2.9219 11.293 0 16.352c-2.9219 5.0586-8.3203 8.1758-14.16 8.1758z"/>
  <path d="m247.74 171.02c3.0469 5.0195 8.4922 8.0859 14.367 8.0859 5.8711 0 11.316-3.0664 14.363-8.0859l32.93-54.207h-0.003906c2.8555-5.1094 2.8477-11.332-0.023438-16.434-2.8672-5.0977-8.1836-8.3398-14.031-8.5508-5.8477-0.21094-11.383 2.6328-14.617 7.5117l-18.703 30.742v0.003906c-3.5703-4.5781-9.2539-6.9844-15.023-6.3711-5.7734 0.61719-10.82 4.168-13.344 9.3945-2.5273 5.2305-2.1758 11.391 0.92969 16.293z"/>
  <use x="70" y="644" xlink:href="#x"/>
  <use x="90.550781" y="644" xlink:href="#c"/>
  <use x="104.359375" y="644" xlink:href="#a"/>
  <use x="123.347656" y="644" xlink:href="#e"/>
  <use x="142.242188" y="644" xlink:href="#b"/>
  <use x="155.628906" y="644" xlink:href="#a"/>
  <use x="174.617188" y="644" xlink:href="#k"/>
  <use x="204.410156" y="644" xlink:href="#j"/>
  <use x="224.453125" y="644" xlink:href="#i"/>
  <use x="252.453125" y="644" xlink:href="#h"/>
  <use x="262.867188" y="644" xlink:href="#g"/>
  <use x="282.804688" y="644" xlink:href="#w"/>
  <use x="299.46875" y="644" xlink:href="#b"/>
  <use x="312.851562" y="644" xlink:href="#v"/>
  <use x="322.453125" y="644" xlink:href="#f"/>
  <use x="352.132812" y="644" xlink:href="#u"/>
  <use x="373.476562" y="644" xlink:href="#t"/>
  <use x="383.070312" y="644" xlink:href="#e"/>
  <use x="401.96875" y="644" xlink:href="#s"/>
  <use x="420.585938" y="644" xlink:href="#a"/>
  <use x="70" y="672" xlink:href="#r"/>
  <use x="82.183594" y="672" xlink:href="#c"/>
  <use x="95.992188" y="672" xlink:href="#d"/>
  <use x="115.226562" y="672" xlink:href="#q"/>
  <use x="154.152344" y="672" xlink:href="#b"/>
  <use x="167.535156" y="672" xlink:href="#p"/>
  <use x="187.46875" y="672" xlink:href="#a"/>
  <use x="216.207031" y="672" xlink:href="#o"/>
  <use x="239.640625" y="672" xlink:href="#d"/>
  <use x="258.878906" y="672" xlink:href="#g"/>
  <use x="278.8125" y="672" xlink:href="#f"/>
  <use x="308.492188" y="672" xlink:href="#n"/>
  <use x="329.015625" y="672" xlink:href="#c"/>
  <use x="342.820312" y="672" xlink:href="#d"/>
  <use x="362.058594" y="672" xlink:href="#m"/>
  <use x="371.65625" y="672" xlink:href="#a"/>
  <use x="390.648438" y="672" xlink:href="#l"/>
  <use x="407.242188" y="672" xlink:href="#b"/>
 </g>
</svg>
