<?xml version="1.0" encoding="UTF-8"?>
<svg width="700pt" height="700pt" version="1.1" viewBox="0 0 700 700" fill="#fff" xmlns="http://www.w3.org/2000/svg">
 <path d="m227.45 52.5c0.12109-19.355 15.82-35 35.191-35h174.84v105.04c0 19.441 15.715 34.965 35.105 34.965h87.395v297.55c0 19.371-15.645 34.949-34.949 34.949-0.12109 19.355-15.734 35-35 35-0.12109 19.355-15.734 35-35 35h-262.59c-19.371 0-34.949-15.734-34.949-35.121v-402.24c0-19.406 15.645-35.121 34.949-35.121 0.050781-19.285 15.699-35 35-35zm-34.949 437.38v-384.88c-9.6602 0-17.5 7.9609-17.5 17.414v402.66c0 9.625 7.9609 17.414 17.5 17.414h262.5c9.6602 0 17.5-7.9609 17.5-17.414l-245.05-0.085937c-19.371 0-34.949-15.734-34.949-35.121zm17.5-402.46v402.66c0 9.625 7.9609 17.414 17.5 17.414h262.5c9.6602 0 17.5-7.9609 17.5-17.414l-245.05-0.085937c-19.371 0-34.949-15.734-34.949-35.121v-384.88c-9.6602 0-17.5 7.9609-17.5 17.414zm245-69.914v104.95c0 9.6953 7.8906 17.551 17.344 17.551h87.656z"/>
</svg>
