<?xml version="1.0" encoding="UTF-8"?>
<svg width="700pt" height="700pt" version="1.1" fill="#fff" viewBox="0 0 700 700" xmlns="http://www.w3.org/2000/svg">
 <g>
  <path d="m236.7 164.43h226.54v29.434h-226.54z"/>
  <path d="m236.7 251.77h226.54v29.398h-226.54z"/>
  <path d="m236.7 339.06h226.54v29.398h-226.54z"/>
  <path d="m236.7 426.39h226.54v29.398h-226.54z"/>
  <path d="m554.24 177.36c0-56.473-45.973-102.45-102.45-102.45h-14.875c-13.668-35.926-47.758-60.219-86.887-60.219-39.164 0-73.289 24.309-86.992 60.219h-14.91c-56.473 0-102.45 45.973-102.45 102.45v265.51c0 56.508 45.973 102.45 102.45 102.45l203.68-0.035156c56.508 0 102.45-45.973 102.45-102.45zm-204.19-133.26c22.801 0 43.242 12.039 54.582 30.836l-109.23-0.003906c11.34-18.812 31.781-30.832 54.652-30.832zm101.78 471.78-203.66 0.015626c-40.266 0-73.047-32.777-73.047-73.047v-265.49c0-40.266 32.777-73.047 73.047-73.047h203.65c40.266 0 73.047 32.777 73.047 73.047l0.035157 265.48c-0.019532 40.246-32.762 73.043-73.066 73.043z"/>
 </g>
</svg>
