<?xml version="1.0" encoding="UTF-8"?>
<svg width="700pt" height="700pt" version="1.1" viewBox="0 0 700 700" fill="#fff" xmlns="http://www.w3.org/2000/svg">
 <path d="m553.23 147-116.67-116.67h-0.11719c-4.4688-4.2266-10.305-6.7109-16.449-7h-256.67c-6.1875 0-12.121 2.4609-16.496 6.8359-4.3789 4.375-6.8359 10.309-6.8359 16.5v466.66c0 6.1875 2.457 12.125 6.8359 16.5 4.375 4.375 10.309 6.8359 16.496 6.8359h373.34c6.1875 0 12.121-2.4609 16.496-6.8359s6.8359-10.312 6.8359-16.5v-350c-0.21094-6.082-2.6133-11.883-6.7656-16.332zm-39.902 343h-326.66v-420h210v93.332c0 6.1914 2.457 12.125 6.832 16.5s10.312 6.8359 16.5 6.8359h93.332zm-76.836-249.83c4.375 4.375 6.832 10.309 6.832 16.496s-2.457 12.121-6.832 16.496l-93.332 93.332c-4.1172 4.1172-9.625 6.543-15.441 6.8086-5.8125 0.26172-11.516-1.6602-15.988-5.3828l-46.668-38.875c-4.7539-3.9609-7.7422-9.6484-8.3047-15.812s1.3477-12.297 5.3047-17.051c3.9609-4.7578 9.6484-7.7461 15.812-8.3086 6.1641-0.5625 12.297 1.3477 17.055 5.3086l30.332 25.246 78.285-78.258c4.3711-4.3633 10.297-6.8086 16.473-6.8086 6.1758 0 12.102 2.4453 16.473 6.8086z"/>
</svg>
