<?xml version="1.0" encoding="UTF-8"?>
<svg width="700pt" height="700pt" version="1.1" viewBox="0 0 700 700" fill="#fff" xmlns="http://www.w3.org/2000/svg" xmlns:xlink="http://www.w3.org/1999/xlink">
 <g>
  <path d="m489.07 29.863h-278.14c-24.742 0-44.801 20.059-44.801 44.801v410.66c0 24.742 20.059 44.801 44.801 44.801h278.14c24.742 0 44.801-20.059 44.801-44.801v-410.66c0-24.738-20.059-44.801-44.801-44.801zm-185.04 196-47.828-39.199-50.871 39.199v-156.8h98.699z"/>
  <use x="70" y="644" xlink:href="#i"/>
  <use x="90.550781" y="644" xlink:href="#d"/>
  <use x="104.359375" y="644" xlink:href="#a"/>
  <use x="123.347656" y="644" xlink:href="#g"/>
  <use x="142.242188" y="644" xlink:href="#c"/>
  <use x="155.628906" y="644" xlink:href="#a"/>
  <use x="174.617188" y="644" xlink:href="#l"/>
  <use x="204.410156" y="644" xlink:href="#k"/>
  <use x="224.453125" y="644" xlink:href="#j"/>
  <use x="252.453125" y="644" xlink:href="#i"/>
  <use x="273" y="644" xlink:href="#f"/>
  <use x="292.933594" y="644" xlink:href="#h"/>
  <use x="302.53125" y="644" xlink:href="#b"/>
  <use x="322.464844" y="644" xlink:href="#b"/>
  <use x="342.398438" y="644" xlink:href="#g"/>
  <use x="361.292969" y="644" xlink:href="#u"/>
  <use x="379.914062" y="644" xlink:href="#h"/>
  <use x="389.511719" y="644" xlink:href="#b"/>
  <use x="409.445312" y="644" xlink:href="#t"/>
  <use x="70" y="672" xlink:href="#s"/>
  <use x="82.183594" y="672" xlink:href="#d"/>
  <use x="95.992188" y="672" xlink:href="#e"/>
  <use x="115.226562" y="672" xlink:href="#r"/>
  <use x="154.152344" y="672" xlink:href="#c"/>
  <use x="167.535156" y="672" xlink:href="#f"/>
  <use x="187.46875" y="672" xlink:href="#a"/>
  <use x="216.207031" y="672" xlink:href="#q"/>
  <use x="239.640625" y="672" xlink:href="#e"/>
  <use x="258.878906" y="672" xlink:href="#p"/>
  <use x="278.8125" y="672" xlink:href="#b"/>
  <use x="308.492188" y="672" xlink:href="#o"/>
  <use x="329.015625" y="672" xlink:href="#d"/>
  <use x="342.820312" y="672" xlink:href="#e"/>
  <use x="362.058594" y="672" xlink:href="#n"/>
  <use x="371.65625" y="672" xlink:href="#a"/>
  <use x="390.648438" y="672" xlink:href="#m"/>
  <use x="407.242188" y="672" xlink:href="#c"/>
 </g>
</svg>
