<?xml version="1.0" encoding="UTF-8"?>
<svg width="700pt" height="700pt" version="1.1" viewBox="0 0 700 700"  fill="#5ca3ea" xmlns="http://www.w3.org/2000/svg" xmlns:xlink="http://www.w3.org/1999/xlink">
 <g>
  <path d="m509.67 91.387h-42.566c-2.0156 24.473-22.488 43.707-47.5 43.707h-115.98c-25.008 0-45.5-19.242-47.512-43.707h-42.566c-17.941 0-32.492 14.543-32.492 32.504v400.51c0 17.953 14.547 32.508 32.492 32.508h296.12c17.941 0 32.504-14.555 32.504-32.508v-400.51c-0.003907-17.961-14.559-32.504-32.5-32.504zm-41.117 270.55h-213.9c-4.3242 0-7.8281-3.5156-7.8281-7.8281 0-4.3359 3.5039-7.8516 7.8281-7.8516h213.9c4.3438 0 7.8398 3.5156 7.8398 7.8516 0 4.3125-3.4922 7.8281-7.8398 7.8281zm0-46.715h-213.9c-4.3242 0-7.8281-3.5156-7.8281-7.8398 0-4.3242 3.5039-7.8398 7.8281-7.8398h213.9c4.3438 0 7.8398 3.5156 7.8398 7.8398 0 4.3242-3.4922 7.8398-7.8398 7.8398zm0-46.691h-213.9c-4.3242 0-7.8281-3.5156-7.8281-7.8398 0-4.3438 3.5039-7.8633 7.8281-7.8633h213.9c4.3438 0 7.8398 3.5117 7.8398 7.8633 0 4.3242-3.4922 7.8398-7.8398 7.8398zm0-46.715h-213.9c-4.3242 0-7.8281-3.5156-7.8281-7.8438 0-4.3359 3.5039-7.8438 7.8281-7.8438l213.9-0.003906c4.3438 0 7.8398 3.5039 7.8398 7.8438 0 4.332-3.4922 7.8477-7.8398 7.8477z"/>
  <path d="m412.68 38.848c-3.1484 0-6.1953 0.35938-9.1602 1.0117-1.0977-22.203-19.434-39.859-41.926-39.859-22.469 0-40.801 17.656-41.922 39.855-2.9414-0.65625-5.9727-1.0078-9.1367-1.0078-23.195 0-41.977 18.801-41.977 41.973 0 23.191 18.781 41.988 41.977 41.988h102.15c23.168 0 41.965-18.801 41.965-41.988 0.003906-23.176-18.801-41.973-41.969-41.973zm-51.086 27.406c-13.395 0-24.266-10.863-24.266-24.27 0-13.418 10.871-24.281 24.266-24.281 13.418 0 24.293 10.871 24.293 24.281 0 13.406-10.871 24.27-24.293 24.27z"/>
  <use x="70" y="644" xlink:href="#s"/>
  <use x="90.550781" y="644" xlink:href="#d"/>
  <use x="104.359375" y="644" xlink:href="#b"/>
  <use x="123.347656" y="644" xlink:href="#k"/>
  <use x="142.242188" y="644" xlink:href="#c"/>
  <use x="155.628906" y="644" xlink:href="#b"/>
  <use x="174.617188" y="644" xlink:href="#j"/>
  <use x="204.410156" y="644" xlink:href="#i"/>
  <use x="224.453125" y="644" xlink:href="#h"/>
  <use x="252.453125" y="644" xlink:href="#f"/>
  <use x="262.046875" y="644" xlink:href="#e"/>
  <use x="278.648438" y="644" xlink:href="#a"/>
  <use x="297.882812" y="644" xlink:href="#g"/>
  <use x="317.816406" y="644" xlink:href="#a"/>
  <use x="337.054688" y="644" xlink:href="#e"/>
  <use x="353.648438" y="644" xlink:href="#f"/>
  <use x="70" y="672" xlink:href="#r"/>
  <use x="82.183594" y="672" xlink:href="#d"/>
  <use x="95.992188" y="672" xlink:href="#a"/>
  <use x="115.226562" y="672" xlink:href="#q"/>
  <use x="154.152344" y="672" xlink:href="#c"/>
  <use x="167.535156" y="672" xlink:href="#p"/>
  <use x="187.46875" y="672" xlink:href="#b"/>
  <use x="216.207031" y="672" xlink:href="#o"/>
  <use x="239.640625" y="672" xlink:href="#a"/>
  <use x="258.878906" y="672" xlink:href="#n"/>
  <use x="278.8125" y="672" xlink:href="#g"/>
  <use x="308.492188" y="672" xlink:href="#m"/>
  <use x="329.015625" y="672" xlink:href="#d"/>
  <use x="342.820312" y="672" xlink:href="#a"/>
  <use x="362.058594" y="672" xlink:href="#l"/>
  <use x="371.65625" y="672" xlink:href="#b"/>
  <use x="390.648438" y="672" xlink:href="#e"/>
  <use x="407.242188" y="672" xlink:href="#c"/>
 </g>
</svg>
