<?xml version="1.0" encoding="UTF-8"?>
<svg width="700pt" height="700pt" version="1.1" viewBox="0 0 700 700" xmlns="http://www.w3.org/2000/svg">
 <g>
  <path d="m412.82 157.68 24.676 18.023v-123.2h-70v123.2l24.676-18.023c3.0078-2.1641 6.6211-3.3242 10.324-3.3242s7.3164 1.1602 10.324 3.3242z"/>
  <path d="m542.5 420v-280c0.003906-20.172-6.9609-39.727-19.719-55.352-12.754-15.625-30.516-26.363-50.281-30.398v155.75c0.015625 3.2383-0.87891 6.4141-2.582 9.168-1.7031 2.75-4.1406 4.9727-7.043 6.4062-2.4453 1.2305-5.1367 1.8906-7.875 1.9258-3.7109 0.027344-7.3281-1.1367-10.324-3.3242l-42.176-30.801-42.176 30.801c-2.6094 1.8828-5.6914 3.0117-8.9023 3.2617-3.2109 0.24609-6.4297-0.39844-9.2969-1.8633-2.9023-1.4336-5.3398-3.6562-7.043-6.4062-1.7031-2.7539-2.5977-5.9297-2.582-9.168v-157.5h-70v455h192.5c23.207 0 45.461-9.2188 61.871-25.629s25.629-38.664 25.629-61.871z"/>
  <path d="m157.5 140v280c-0.003906 20.172 6.9609 39.727 19.719 55.352 12.754 15.625 30.516 26.363 50.281 30.398v-451.5c-19.766 4.0352-37.527 14.773-50.281 30.398-12.758 15.625-19.723 35.18-19.719 55.352z"/>
 </g>
</svg>
