<?xml version="1.0" encoding="UTF-8"?>
<svg width="700pt" height="700pt" version="1.1" viewBox="0 0 700 700" xmlns="http://www.w3.org/2000/svg" xmlns:xlink="http://www.w3.org/1999/xlink">
 <g>
  <path d="m303.33 0c-21.598 0-39.734 14.977-44.98 35h-83.352c-25.652 0-46.668 21.016-46.668 46.668v431.66c0 25.652 21.016 46.668 46.668 46.668h350c25.652 0 46.668-21.016 46.668-46.668v-431.66c0-25.652-21.016-46.668-46.668-46.668h-83.352c-5.2461-20.023-23.383-35-44.98-35zm0 23.332h93.336c13.129 0 23.332 10.207 23.332 23.336 0 13.129-10.203 23.332-23.332 23.332h-93.336c-13.129 0-23.332-10.203-23.332-23.332 0-13.129 10.203-23.336 23.332-23.336zm-128.33 35h83.352c5.2461 20.023 23.383 35 44.98 35h93.336c21.598 0 39.734-14.977 44.98-35h83.352c13.129 0 23.332 10.207 23.332 23.336v431.66c0 13.129-10.203 23.336-23.332 23.336h-350c-13.129 0-23.332-10.207-23.332-23.336v-431.66c0-13.129 10.203-23.336 23.332-23.336zm140.39 128.36c-3.4336-0.10938-6.7461 1.3008-9.0469 3.8516l-45.141 50.133-20.574-16.453c-5.0312-4.0312-12.383-3.2148-16.406 1.8242-4.0312 5.0312-3.2148 12.379 1.8242 16.406l29.164 23.332c4.8281 3.8711 11.836 3.3008 15.973-1.2969l52.5-58.336c4.3125-4.7891 3.918-12.164-0.86328-16.473-2.0469-1.8398-4.6797-2.8984-7.4297-2.9883zm57.945 34.98c-6.4414 0-11.664 5.2227-11.664 11.664 0 6.4453 5.2227 11.668 11.664 11.668h93.336c6.4414 0 11.664-5.2227 11.664-11.668 0-6.4414-5.2227-11.664-11.664-11.664zm-70.18 140c-3.0273 0.058593-5.9102 1.293-8.0469 3.4414l-26.727 26.727-26.707-26.707c-4.5469-4.543-11.914-4.5742-16.473-0.042968-4.5547 4.5547-4.5547 11.941 0 16.496l26.637 26.75-26.75 26.754c-4.5547 4.5547-4.5781 11.965 0 16.52 4.5664 4.543 11.953 4.5195 16.496-0.046875l26.727-26.727 26.73 26.727c4.543 4.5664 11.93 4.6094 16.496 0.070312 4.5547-4.5586 4.5547-11.941 0-16.5l-26.703-26.797 26.75-26.75c4.5547-4.5547 4.5781-11.965 0-16.52-2.2305-2.2188-5.2852-3.4453-8.4297-3.3945zm70.18 35c-6.4414 0-11.664 5.2227-11.664 11.664 0 6.4453 5.2227 11.668 11.664 11.668h93.336c6.4414 0 11.664-5.2227 11.664-11.668 0-6.4414-5.2227-11.664-11.664-11.664z" fill-rule="evenodd"/>
  <use x="70" y="735" xlink:href="#a"/>
  <use x="220.503906" y="735" xlink:href="#h"/>
  <use x="287.953125" y="735" xlink:href="#g"/>
  <use x="350.015625" y="735" xlink:href="#f"/>
  <use x="450.105469" y="735" xlink:href="#e"/>
  <use x="471.8125" y="735" xlink:href="#a"/>
  <use x="514.621094" y="735" xlink:href="#d"/>
  <use x="564.210937" y="735" xlink:href="#c"/>
  <use x="613.03125" y="735" xlink:href="#a"/>
  <use x="655.839844" y="735" xlink:href="#b"/>
 </g>
</svg>
