<?xml version="1.0" encoding="UTF-8"?>
<svg width="700pt" height="700pt" version="1.1" viewBox="0 0 700 700" xmlns="http://www.w3.org/2000/svg" xmlns:xlink="http://www.w3.org/1999/xlink">
 <defs>
  <symbol id="s" overflow="visible">
   <path d="m6.1406-0.35938c-0.32422 0.15625-0.65625 0.27734-1 0.35938s-0.69922 0.125-1.0625 0.125c-1.1172 0-2-0.30469-2.6562-0.92188-0.64844-0.625-0.96875-1.4688-0.96875-2.5312 0-1.0703 0.32031-1.9141 0.96875-2.5312 0.65625-0.625 1.5391-0.9375 2.6562-0.9375 0.36328 0 0.71875 0.042969 1.0625 0.125 0.34375 0.085937 0.67578 0.21094 1 0.375v1.375c-0.32422-0.21875-0.64062-0.375-0.95312-0.46875-0.3125-0.10156-0.63672-0.15625-0.96875-0.15625-0.61719 0-1.1016 0.19922-1.4531 0.59375-0.35547 0.38672-0.53125 0.92969-0.53125 1.625 0 0.6875 0.17578 1.2305 0.53125 1.625 0.35156 0.38672 0.83594 0.57812 1.4531 0.57812 0.33203 0 0.65625-0.046875 0.96875-0.14062 0.3125-0.10156 0.62891-0.26562 0.95312-0.48438z"/>
  </symbol>
  <symbol id="c" overflow="visible">
   <path d="m4.4844-3.6406c-0.13672-0.0625-0.27734-0.10938-0.42188-0.14062-0.13672-0.039062-0.27344-0.0625-0.40625-0.0625-0.41797 0-0.73438 0.13672-0.95312 0.40625-0.21875 0.26172-0.32812 0.63672-0.32812 1.125v2.3125h-1.6094v-5h1.6094v0.8125c0.19531-0.32031 0.42969-0.55469 0.70312-0.70312 0.26953-0.15625 0.58594-0.23438 0.95312-0.23438 0.0625 0 0.125 0.007812 0.1875 0.015625 0.0625 0 0.14844 0.007813 0.26562 0.015625z"/>
  </symbol>
  <symbol id="a" overflow="visible">
   <path d="m5.7656-2.5156v0.45312h-3.7344c0.03125 0.375 0.16016 0.65625 0.39062 0.84375 0.23828 0.1875 0.56641 0.28125 0.98438 0.28125 0.33203 0 0.67578-0.046875 1.0312-0.14062 0.35156-0.10156 0.71875-0.25391 1.0938-0.45312v1.2344c-0.375 0.13672-0.75781 0.24219-1.1406 0.3125-0.375 0.070312-0.75 0.10938-1.125 0.10938-0.90625 0-1.6172-0.22656-2.125-0.6875-0.5-0.45703-0.75-1.1016-0.75-1.9375 0-0.8125 0.24219-1.4531 0.73438-1.9219 0.5-0.46875 1.1797-0.70312 2.0469-0.70312 0.78125 0 1.4062 0.24219 1.875 0.71875 0.47656 0.46875 0.71875 1.1016 0.71875 1.8906zm-1.6406-0.53125c0-0.30078-0.089844-0.54688-0.26562-0.73438-0.17969-0.1875-0.41406-0.28125-0.70312-0.28125-0.30469 0-0.55469 0.089844-0.75 0.26562-0.19922 0.16797-0.32031 0.41797-0.35938 0.75z"/>
  </symbol>
  <symbol id="e" overflow="visible">
   <path d="m3.0156-2.25c-0.33594 0-0.58984 0.058594-0.76562 0.17188-0.16797 0.11719-0.25 0.28125-0.25 0.5 0 0.19922 0.066406 0.35547 0.20312 0.46875 0.14453 0.11719 0.33594 0.17188 0.57812 0.17188 0.30078 0 0.55078-0.10156 0.75-0.3125 0.20703-0.21875 0.3125-0.48828 0.3125-0.8125v-0.1875zm2.4375-0.60938v2.8594h-1.6094v-0.73438c-0.21875 0.30469-0.46484 0.52344-0.73438 0.65625-0.26172 0.13281-0.58594 0.20312-0.96875 0.20312-0.52344 0-0.94531-0.14844-1.2656-0.45312-0.32422-0.30078-0.48438-0.69141-0.48438-1.1719 0-0.59375 0.20312-1.0234 0.60938-1.2969 0.40625-0.26953 1.0391-0.40625 1.9062-0.40625h0.9375v-0.125c0-0.25-0.10156-0.42969-0.29688-0.54688-0.19922-0.125-0.51172-0.1875-0.9375-0.1875-0.34375 0-0.66406 0.039062-0.95312 0.10938-0.29297 0.0625-0.57031 0.16406-0.82812 0.29688v-1.2188c0.34375-0.082031 0.6875-0.14453 1.0312-0.1875 0.35156-0.039062 0.70312-0.0625 1.0469-0.0625 0.89453 0 1.5391 0.17969 1.9375 0.53125 0.40625 0.35547 0.60938 0.93359 0.60938 1.7344z"/>
  </symbol>
  <symbol id="b" overflow="visible">
   <path d="m2.5156-6.4219v1.4219h1.6562v1.1406h-1.6562v2.125c0 0.23047 0.046875 0.38672 0.14062 0.46875 0.09375 0.085937 0.27344 0.125 0.54688 0.125h0.82812v1.1406h-1.375c-0.63672 0-1.0859-0.12891-1.3438-0.39062-0.26172-0.26953-0.39062-0.71875-0.39062-1.3438v-2.125h-0.79688v-1.1406h0.79688v-1.4219z"/>
  </symbol>
  <symbol id="n" overflow="visible">
   <path d="m4.1719-4.2812v-2.6719h1.6094v6.9531h-1.6094v-0.71875c-0.21875 0.29297-0.46484 0.50781-0.73438 0.64062-0.26172 0.13281-0.5625 0.20312-0.90625 0.20312-0.625 0-1.1367-0.24219-1.5312-0.73438-0.39844-0.48828-0.59375-1.1172-0.59375-1.8906 0-0.76953 0.19531-1.3984 0.59375-1.8906 0.39453-0.48828 0.90625-0.73438 1.5312-0.73438 0.34375 0 0.64453 0.070312 0.90625 0.20312 0.26953 0.13672 0.51562 0.35156 0.73438 0.64062zm-1.0469 3.25c0.34375 0 0.60156-0.125 0.78125-0.375 0.17578-0.25 0.26562-0.61328 0.26562-1.0938 0-0.47656-0.089844-0.84375-0.26562-1.0938-0.17969-0.25-0.4375-0.375-0.78125-0.375s-0.60938 0.125-0.79688 0.375c-0.17969 0.25-0.26562 0.61719-0.26562 1.0938 0 0.48047 0.085938 0.84375 0.26562 1.0938 0.1875 0.25 0.45312 0.375 0.79688 0.375z"/>
  </symbol>
  <symbol id="m" overflow="visible">
   <path d="m3.4375-1.0312c0.34375 0 0.60156-0.125 0.78125-0.375 0.17578-0.25 0.26562-0.61328 0.26562-1.0938 0-0.47656-0.089844-0.84375-0.26562-1.0938-0.17969-0.25-0.4375-0.375-0.78125-0.375s-0.60938 0.13281-0.79688 0.39062c-0.17969 0.25-0.26562 0.60938-0.26562 1.0781 0 0.48047 0.085938 0.84375 0.26562 1.0938 0.1875 0.25 0.45312 0.375 0.79688 0.375zm-1.0625-3.25c0.21875-0.28906 0.45703-0.50391 0.71875-0.64062 0.26953-0.13281 0.58203-0.20312 0.9375-0.20312 0.61328 0 1.1172 0.24609 1.5156 0.73438 0.39453 0.49219 0.59375 1.1211 0.59375 1.8906 0 0.77344-0.19922 1.4023-0.59375 1.8906-0.39844 0.49219-0.90234 0.73438-1.5156 0.73438-0.35547 0-0.66797-0.070312-0.9375-0.20312-0.26172-0.13281-0.5-0.34766-0.71875-0.64062v0.71875h-1.6094v-6.9531h1.6094z"/>
  </symbol>
  <symbol id="l" overflow="visible">
   <path d="m0.10938-5h1.6094l1.3438 3.3906 1.1406-3.3906h1.5938l-2.0938 5.4688c-0.21875 0.5625-0.46875 0.95312-0.75 1.1719s-0.65234 0.32812-1.1094 0.32812h-0.92188v-1.0469h0.5c0.26953 0 0.46094-0.042969 0.57812-0.125 0.125-0.085937 0.22266-0.24219 0.29688-0.46875l0.046875-0.14062z"/>
  </symbol>
  <symbol id="k" overflow="visible">
   <path d="m0.84375-6.6719h1.7188v2.5469h2.5312v-2.5469h1.7344v6.6719h-1.7344v-2.8281h-2.5312v2.8281h-1.7188z"/>
  </symbol>
  <symbol id="j" overflow="visible">
   <path d="m0.71875-1.9531v-3.0469h1.6094v0.5c0 0.27344-0.007813 0.60938-0.015625 1.0156v0.8125c0 0.40625 0.007812 0.69922 0.03125 0.875 0.019531 0.17969 0.054688 0.30859 0.10938 0.39062 0.0625 0.10547 0.14453 0.1875 0.25 0.25 0.11328 0.054688 0.23828 0.078125 0.375 0.078125 0.33203 0 0.59375-0.125 0.78125-0.375 0.19531-0.25781 0.29688-0.61719 0.29688-1.0781v-2.4688h1.5938v5h-1.5938v-0.71875c-0.25 0.29297-0.51172 0.50781-0.78125 0.64062-0.26172 0.13281-0.55859 0.20312-0.89062 0.20312-0.57422 0-1.0117-0.17578-1.3125-0.53125-0.30469-0.35156-0.45312-0.86719-0.45312-1.5469z"/>
  </symbol>
  <symbol id="i" overflow="visible">
   <path d="m5.4062-4.1719c0.20703-0.3125 0.44531-0.54688 0.71875-0.70312 0.28125-0.16406 0.58594-0.25 0.92188-0.25 0.57031 0 1.0078 0.17969 1.3125 0.53125 0.30078 0.35547 0.45312 0.87109 0.45312 1.5469v3.0469h-1.6094v-2.6094c0.007813-0.039063 0.015625-0.082031 0.015625-0.125v-0.17188c0-0.35156-0.054688-0.60938-0.15625-0.76562-0.10547-0.16406-0.27734-0.25-0.51562-0.25-0.30469 0-0.53906 0.125-0.70312 0.375-0.15625 0.25-0.24219 0.61719-0.25 1.0938v2.4531h-1.6094v-2.6094c0-0.55078-0.046875-0.90625-0.14062-1.0625-0.09375-0.16406-0.26562-0.25-0.51562-0.25-0.30469 0-0.53906 0.125-0.70312 0.375-0.16797 0.25-0.25 0.60938-0.25 1.0781v2.4688h-1.6094v-5h1.6094v0.71875c0.19531-0.28125 0.42188-0.48828 0.67188-0.625 0.25-0.14453 0.53125-0.21875 0.84375-0.21875 0.34375 0 0.64453 0.085938 0.90625 0.25 0.26953 0.16797 0.47266 0.40234 0.60938 0.70312z"/>
  </symbol>
  <symbol id="h" overflow="visible">
   <path d="m5.7969-3.0469v3.0469h-1.6094v-2.3281c0-0.4375-0.011719-0.73438-0.03125-0.89062-0.011719-0.16406-0.042969-0.28906-0.09375-0.375-0.0625-0.10156-0.15234-0.17969-0.26562-0.23438-0.10547-0.0625-0.22656-0.09375-0.35938-0.09375-0.33594 0-0.59375 0.13281-0.78125 0.39062-0.1875 0.26172-0.28125 0.61719-0.28125 1.0625v2.4688h-1.6094v-5h1.6094v0.71875c0.23828-0.28906 0.49219-0.50391 0.76562-0.64062 0.26953-0.13281 0.56641-0.20312 0.89062-0.20312 0.58203 0 1.0195 0.17969 1.3125 0.53125 0.30078 0.35547 0.45312 0.87109 0.45312 1.5469z"/>
  </symbol>
  <symbol id="g" overflow="visible">
   <path d="m4.8125-4.8438v1.2969c-0.21875-0.14453-0.4375-0.25391-0.65625-0.32812-0.21875-0.070312-0.44531-0.10938-0.67188-0.10938-0.44922 0-0.79688 0.13281-1.0469 0.39062-0.25 0.26172-0.375 0.625-0.375 1.0938s0.125 0.83594 0.375 1.0938c0.25 0.26172 0.59766 0.39062 1.0469 0.39062 0.25 0 0.48438-0.035156 0.70312-0.10938 0.22656-0.070312 0.4375-0.17969 0.625-0.32812v1.3125c-0.25 0.085938-0.50781 0.14453-0.76562 0.1875-0.25 0.050781-0.50781 0.078125-0.76562 0.078125-0.90625 0-1.6172-0.22656-2.125-0.6875-0.51172-0.46875-0.76562-1.1133-0.76562-1.9375 0-0.82031 0.25391-1.4609 0.76562-1.9219 0.50781-0.46875 1.2188-0.70312 2.125-0.70312 0.25781 0 0.51562 0.027344 0.76562 0.078125 0.25781 0.042969 0.51562 0.10938 0.76562 0.20312z"/>
  </symbol>
  <symbol id="f" overflow="visible">
   <path d="m5.7969-3.0469v3.0469h-1.6094v-2.3281c0-0.4375-0.011719-0.73438-0.03125-0.89062-0.011719-0.16406-0.042969-0.28906-0.09375-0.375-0.0625-0.10156-0.15234-0.17969-0.26562-0.23438-0.10547-0.0625-0.22656-0.09375-0.35938-0.09375-0.33594 0-0.59375 0.13281-0.78125 0.39062-0.1875 0.26172-0.28125 0.61719-0.28125 1.0625v2.4688h-1.6094v-6.9531h1.6094v2.6719c0.23828-0.28906 0.49219-0.50391 0.76562-0.64062 0.26953-0.13281 0.56641-0.20312 0.89062-0.20312 0.58203 0 1.0195 0.17969 1.3125 0.53125 0.30078 0.35547 0.45312 0.87109 0.45312 1.5469z"/>
  </symbol>
  <symbol id="r" overflow="visible">
   <path d="m4.0625-6.9531v1.0469h-0.89062c-0.21875 0-0.375 0.042969-0.46875 0.125-0.085937 0.085938-0.125 0.22656-0.125 0.42188v0.35938h1.3594v1.1406h-1.3594v3.8594h-1.6094v-3.8594h-0.79688v-1.1406h0.79688v-0.35938c0-0.53906 0.14844-0.94141 0.45312-1.2031 0.30078-0.25781 0.77344-0.39062 1.4219-0.39062z"/>
  </symbol>
  <symbol id="d" overflow="visible">
   <path d="m3.1562-3.9844c-0.35547 0-0.625 0.13281-0.8125 0.39062-0.1875 0.25-0.28125 0.61719-0.28125 1.0938 0 0.48047 0.09375 0.85156 0.28125 1.1094 0.1875 0.25 0.45703 0.375 0.8125 0.375 0.34375 0 0.60938-0.125 0.79688-0.375 0.1875-0.25781 0.28125-0.62891 0.28125-1.1094 0-0.47656-0.09375-0.84375-0.28125-1.0938-0.1875-0.25781-0.45312-0.39062-0.79688-0.39062zm0-1.1406c0.85156 0 1.5195 0.23438 2 0.70312 0.48828 0.46094 0.73438 1.1016 0.73438 1.9219 0 0.82422-0.24609 1.4688-0.73438 1.9375-0.48047 0.46094-1.1484 0.6875-2 0.6875-0.86719 0-1.543-0.22656-2.0312-0.6875-0.49219-0.46875-0.73438-1.1133-0.73438-1.9375 0-0.82031 0.24219-1.4609 0.73438-1.9219 0.48828-0.46875 1.1641-0.70312 2.0312-0.70312z"/>
  </symbol>
  <symbol id="q" overflow="visible">
   <path d="m0.84375-6.6719h1.9219l2.4219 4.5781v-4.5781h1.6406v6.6719h-1.9219l-2.4375-4.5781v4.5781h-1.625z"/>
  </symbol>
  <symbol id="p" overflow="visible">
   <path d="m0.84375-6.6719h2.8594c0.84375 0 1.4883 0.1875 1.9375 0.5625 0.45703 0.375 0.6875 0.91406 0.6875 1.6094 0 0.69922-0.23047 1.2422-0.6875 1.625-0.44922 0.375-1.0938 0.5625-1.9375 0.5625h-1.1406v2.3125h-1.7188zm1.7188 1.25v1.8594h0.95312c0.33203 0 0.58594-0.078125 0.76562-0.23438 0.1875-0.16406 0.28125-0.39844 0.28125-0.70312 0-0.28906-0.09375-0.51562-0.28125-0.67188-0.17969-0.16406-0.43359-0.25-0.76562-0.25z"/>
  </symbol>
  <symbol id="o" overflow="visible">
   <path d="m0.76562-5h1.6094v4.9062c0 0.67578-0.16406 1.1875-0.48438 1.5312-0.32422 0.35156-0.79297 0.53125-1.4062 0.53125h-0.78125v-1.0469h0.26562c0.30078 0 0.50781-0.070313 0.625-0.20312 0.11328-0.13672 0.17188-0.40625 0.17188-0.8125zm0-1.9531h1.6094v1.2969h-1.6094z"/>
  </symbol>
 </defs>
 <g>
  <path d="m295.03 321.14h108.11c43.98 0 80.629 34.816 80.629 80.629v78.797h-267.54v-78.797c0-45.812 34.816-80.629 78.797-80.629z" fill-rule="evenodd"/>
  <path d="m350 152.55c38.48 0 69.633 31.152 69.633 69.633 0 40.312-31.152 71.465-69.633 71.465s-71.465-31.152-71.465-71.465c0-38.48 32.984-69.633 71.465-69.633z" fill-rule="evenodd"/>
  <path d="m511.26 300.98h108.11c43.98 0 80.629 34.816 80.629 80.629v80.629h-183.25v-60.473c0-36.648-18.324-69.633-45.812-89.789 12.828-7.3281 25.656-10.996 40.312-10.996z" fill-rule="evenodd"/>
  <path d="m564.4 132.39c40.312 0 71.465 31.152 71.465 69.633 0 40.312-31.152 71.465-71.465 71.465-38.48 0-69.633-31.152-69.633-71.465 0-38.48 31.152-69.633 69.633-69.633z" fill-rule="evenodd"/>
  <path d="m80.629 300.98h106.28c14.66 0 29.32 3.6641 40.312 10.996-25.656 20.156-43.98 53.141-43.98 89.789v60.473h-183.25v-80.629c0-45.812 36.648-80.629 80.629-80.629z" fill-rule="evenodd"/>
  <path d="m133.77 132.39c38.48 0 71.465 31.152 71.465 69.633 0 40.312-32.984 71.465-71.465 71.465s-69.633-31.152-69.633-71.465c0-38.48 31.152-69.633 69.633-69.633z" fill-rule="evenodd"/> 
 </g>
</svg>
