<?xml version="1.0" encoding="UTF-8"?>
<svg width="700pt" height="700pt" version="1.1" viewBox="0 0 700 700" fill="#fff" xmlns="http://www.w3.org/2000/svg">
 <g>
  <path d="m255.84 285.84c-3.7617 3.7539-5.875 8.8477-5.875 14.16s2.1133 10.406 5.875 14.16l80 80c1.875 1.8555 4.0898 3.3359 6.5195 4.3594 4.8945 2.0234 10.387 2.0234 15.281 0 2.4297-1.0234 4.6445-2.5039 6.5195-4.3594l80-80c5.0586-5.0586 7.0352-12.434 5.1836-19.344s-7.25-12.309-14.16-14.16-14.285 0.125-19.344 5.1836l-45.84 45.879v-311.72c0-7.1445-3.8125-13.746-10-17.32-6.1875-3.5742-13.812-3.5742-20 0-6.1875 3.5742-10 10.176-10 17.32v311.72l-45.84-45.879c-3.7539-3.7617-8.8477-5.875-14.16-5.875s-10.406 2.1133-14.16 5.875z"/>
  <path d="m590 160h-140c-7.1445 0-13.746 3.8125-17.32 10-3.5742 6.1875-3.5742 13.812 0 20 3.5742 6.1875 10.176 10 17.32 10h140c5.3047 0 10.391 2.1055 14.141 5.8594 3.7539 3.75 5.8594 8.8359 5.8594 14.141v280c0 5.3047-2.1055 10.391-5.8594 14.141-3.75 3.7539-8.8359 5.8594-14.141 5.8594h-480c-5.3047 0-10.391-2.1055-14.141-5.8594-3.7539-3.75-5.8594-8.8359-5.8594-14.141v-280c0-5.3047 2.1055-10.391 5.8594-14.141 3.75-3.7539 8.8359-5.8594 14.141-5.8594h140c7.1445 0 13.746-3.8125 17.32-10 3.5742-6.1875 3.5742-13.812 0-20-3.5742-6.1875-10.176-10-17.32-10h-140c-15.914 0-31.176 6.3203-42.426 17.574-11.254 11.25-17.574 26.512-17.574 42.426v280c0 15.914 6.3203 31.176 17.574 42.426 11.25 11.254 26.512 17.574 42.426 17.574h480c15.914 0 31.176-6.3203 42.426-17.574 11.254-11.25 17.574-26.512 17.574-42.426v-280c0-15.914-6.3203-31.176-17.574-42.426-11.25-11.254-26.512-17.574-42.426-17.574z"/>
 </g>
</svg>
