<?xml version="1.0" encoding="UTF-8"?>
<svg width="700pt" height="700pt" version="1.1" fill="#fff" viewBox="0 0 700 700" xmlns="http://www.w3.org/2000/svg" xmlns:xlink="http://www.w3.org/1999/xlink">
 <g>
  <path d="m425.6 378.18c0 11.598-9.4023 21-21 21h-109.2c-11.598 0-21-9.4023-21-21v-33.602h-176.4v137.55c0 23.195 18.805 42 42 42h420c23.195 0 42-18.805 42-42v-137.55h-176.4z"/>
  <path d="m560 146.12h-91.762v-52.594c0-31.789-25.863-57.656-57.652-57.656h-121.17c-31.789 0-57.656 25.863-57.656 57.656v52.594h-91.762c-23.195 0-42 18.805-42 42v114.45h176.4v-33.602c0-11.598 9.4023-21 21-21h109.2c11.598 0 21 9.4023 21 21v33.602h176.4v-114.45c0-23.195-18.805-42-42-42zm-133.76 0h-152.48v-52.594c0-8.6328 7.0234-15.656 15.656-15.656h121.17c8.6289 0 15.652 7.0234 15.652 15.656z"/>
  <path d="m316.4 289.98h67.199v67.199h-67.199z"/>
  <use x="70" y="644" xlink:href="#k"/>
  <use x="90.550781" y="644" xlink:href="#b"/>
  <use x="104.359375" y="644" xlink:href="#a"/>
  <use x="123.347656" y="644" xlink:href="#g"/>
  <use x="142.242188" y="644" xlink:href="#d"/>
  <use x="155.628906" y="644" xlink:href="#a"/>
  <use x="174.617188" y="644" xlink:href="#f"/>
  <use x="204.410156" y="644" xlink:href="#m"/>
  <use x="224.453125" y="644" xlink:href="#e"/>
  <use x="252.453125" y="644" xlink:href="#l"/>
  <use x="280.3125" y="644" xlink:href="#j"/>
  <use x="289.914062" y="644" xlink:href="#u"/>
  <use x="299.507812" y="644" xlink:href="#j"/>
  <use x="309.109375" y="644" xlink:href="#i"/>
  <use x="329.039062" y="644" xlink:href="#f"/>
  <use x="349.085938" y="644" xlink:href="#g"/>
  <use x="377.726562" y="644" xlink:href="#k"/>
  <use x="398.273438" y="644" xlink:href="#c"/>
  <use x="417.511719" y="644" xlink:href="#h"/>
  <use x="437.445312" y="644" xlink:href="#b"/>
  <use x="451.253906" y="644" xlink:href="#a"/>
  <use x="470.242187" y="644" xlink:href="#e"/>
  <use x="70" y="672" xlink:href="#t"/>
  <use x="82.183594" y="672" xlink:href="#b"/>
  <use x="95.992188" y="672" xlink:href="#c"/>
  <use x="115.226562" y="672" xlink:href="#s"/>
  <use x="154.152344" y="672" xlink:href="#d"/>
  <use x="167.535156" y="672" xlink:href="#r"/>
  <use x="187.46875" y="672" xlink:href="#a"/>
  <use x="216.207031" y="672" xlink:href="#q"/>
  <use x="239.640625" y="672" xlink:href="#c"/>
  <use x="258.878906" y="672" xlink:href="#h"/>
  <use x="278.8125" y="672" xlink:href="#i"/>
  <use x="308.492188" y="672" xlink:href="#p"/>
  <use x="329.015625" y="672" xlink:href="#b"/>
  <use x="342.820312" y="672" xlink:href="#c"/>
  <use x="362.058594" y="672" xlink:href="#o"/>
  <use x="371.65625" y="672" xlink:href="#a"/>
  <use x="390.648438" y="672" xlink:href="#n"/>
  <use x="407.242188" y="672" xlink:href="#d"/>
 </g>
</svg>
