<?xml version="1.0" encoding="UTF-8"?>
<svg width="700pt" height="700pt" version="1.1" viewBox="0 0 700 700" fill="#fff" xmlns="http://www.w3.org/2000/svg" xmlns:xlink="http://www.w3.org/1999/xlink">
 <g>
  <path d="m169.7 114.29h239.87c6.0234 0 10.859-4.8359 10.859-10.859 0-6.0234-4.8359-10.859-10.859-10.859h-239.87c-6.0234 0-10.859 4.8359-10.859 10.859 0 6.0234 4.8359 10.859 10.859 10.859z"/>
  <path d="m169.7 186.58h239.87c6.0234 0 10.859-4.8359 10.859-10.859 0-6.0234-4.8359-10.859-10.859-10.859l-239.87-0.003906c-6.0234 0-10.859 4.8359-10.859 10.859 0 6.0273 4.8359 10.863 10.859 10.863z"/>
  <path d="m169.7 258.87h239.87c6.0234 0 10.859-4.8359 10.859-10.859 0-6.0234-4.8359-10.859-10.859-10.859h-239.87c-6.0234 0-10.859 4.8359-10.859 10.859 0 5.9414 4.8359 10.859 10.859 10.859z"/>
  <path d="m365.53 320.3c0-6.0234-4.8359-10.859-10.859-10.859h-184.97c-6.0234 0-10.859 4.8359-10.859 10.859 0 6.0234 4.8359 10.859 10.859 10.859h184.97c6.0234 0 10.859-4.9219 10.859-10.859z"/>
  <path d="m300.2 381.65h-130.5c-6.0234 0-10.859 4.8359-10.859 10.859 0 6.0234 4.8359 10.859 10.859 10.859h130.5c6.0234 0 10.859-4.8359 10.859-10.859 0.003907-6.0234-4.832-10.859-10.855-10.859z"/>
  <path d="m292.22 453.94h-122.52c-6.0234 0-10.859 4.8359-10.859 10.859s4.8359 10.859 10.859 10.859h122.52c6.0234 0 10.859-4.8359 10.859-10.859 0.003906-6.0195-4.832-10.859-10.855-10.859z"/>
  <path d="m604.21 229.43c-10.945-10.945-25.539-17.055-41.066-17.055s-30.121 6.0234-41.066 17.055l-21.551 21.551-0.003907-202.62c0-19.855-16.207-36.062-36.062-36.062l-349.66 0.003907c-19.855 0-36.062 16.207-36.062 36.062v463.27c0 19.855 16.207 36.062 36.062 36.062h349.57c19.855 0 36.062-16.207 36.062-36.062v-96.223l103.77-103.77c22.738-22.656 22.738-59.48 0-82.219zm-139.15 190.66-51.504-51.504 100.04-100.04 51.504 51.504zm-66.777-29.953c0.42578-1.5273 1.1875-2.8867 1.8672-4.2422l47.684 47.602c-1.4414 0.59375-2.8008 1.4414-4.3281 1.8672l-63.211 17.988zm80.438 121.5c0 7.8906-6.4492 14.34-14.34 14.34h-349.57c-7.8906 0-14.34-6.4492-14.34-14.34v-463.27c0-7.8906 6.4492-14.34 14.34-14.34h349.57c7.8906 0 14.34 6.4492 14.34 14.34v224.34l-86.715 86.715c-6.8711 6.8711-11.879 15.441-14.594 24.777l-18.668 65.418c-2.0352 7.1289-0.085937 14.848 5.1758 20.109 3.9023 3.9023 9.1641 6.0234 14.508 6.0234 1.8672 0 3.7344-0.25391 5.6016-0.76172l65.418-18.582c9.332-2.6289 17.902-7.7227 24.777-14.594l4.4961-4.4961zm110.22-215.35-8.4844 8.4844-51.504-51.504 8.4844-8.4844c6.8711-6.8711 16.035-10.691 25.711-10.691 9.6719 0 18.836 3.8164 25.793 10.777 14.168 14.172 14.168 37.25 0 51.418z"/>
  <use x="70" y="687.273438" xlink:href="#e"/>
  <use x="101.132813" y="687.273438" xlink:href="#c"/>
  <use x="122.058594" y="687.273438" xlink:href="#a"/>
  <use x="150.828125" y="687.273438" xlink:href="#j"/>
  <use x="179.457031" y="687.273438" xlink:href="#b"/>
  <use x="199.738281" y="687.273438" xlink:href="#a"/>
  <use x="228.511719" y="687.273438" xlink:href="#i"/>
  <use x="273.648438" y="687.273438" xlink:href="#h"/>
  <use x="304.015625" y="687.273438" xlink:href="#g"/>
  <use x="346.441406" y="687.273438" xlink:href="#f"/>
  <use x="381.65625" y="687.273438" xlink:href="#a"/>
  <use x="410.429688" y="687.273438" xlink:href="#t"/>
  <use x="435.679688" y="687.273438" xlink:href="#d"/>
  <use x="450.222656" y="687.273438" xlink:href="#s"/>
  <use x="480.589844" y="687.273438" xlink:href="#r"/>
  <use x="525.5625" y="687.273438" xlink:href="#e"/>
  <use x="556.699219" y="687.273438" xlink:href="#d"/>
  <use x="571.238281" y="687.273438" xlink:href="#c"/>
  <use x="592.160156" y="687.273438" xlink:href="#q"/>
  <use x="617.308594" y="687.273438" xlink:href="#p"/>
  <use x="631.851562" y="687.273438" xlink:href="#a"/>
  <use x="70" y="729.695312" xlink:href="#o"/>
  <use x="197.5" y="729.695312" xlink:href="#b"/>
  <use x="217.78125" y="729.695312" xlink:href="#n"/>
  <use x="291.527344" y="729.695312" xlink:href="#m"/>
  <use x="431.351563" y="729.695312" xlink:href="#l"/>
  <use x="512.511719" y="729.695312" xlink:href="#k"/>
  <use x="580.976562" y="729.695312" xlink:href="#b"/>
 </g>
</svg>
