<?xml version="1.0" encoding="UTF-8"?>
<svg width="700pt" height="700pt" version="1.1" viewBox="0 0 700 700" fill="#fff"  xmlns="http://www.w3.org/2000/svg" xmlns:xlink="http://www.w3.org/1999/xlink">
 <g>
  <path d="m433.05 90.047h-28c-1.1992-18.793-11.926-35.668-28.43-44.738-16.508-9.0664-36.504-9.0664-53.008 0-16.508 9.0703-27.234 25.945-28.434 44.738h-28c-6.1836 0-11.199 5.0156-11.199 11.199v16.801h-34.777c-14.852 0-29.094 5.9023-39.598 16.402-10.5 10.504-16.402 24.746-16.402 39.598v291.2c0 14.855 5.9023 29.098 16.402 39.602 10.504 10.5 24.746 16.398 39.598 16.398h257.6c14.852 0 29.094-5.8984 39.598-16.398 10.5-10.504 16.402-24.746 16.402-39.602v-291.2c0-14.852-5.9023-29.094-16.402-39.598-10.504-10.5-24.746-16.402-39.598-16.402h-34.555v-16.801c0-2.9688-1.1797-5.8164-3.2773-7.918-2.1016-2.1016-4.9492-3.2812-7.9219-3.2812zm-154.95 22.398h28l0.003906 0.003907c2.9688 0 5.8164-1.1797 7.918-3.2812 2.1016-2.1016 3.2812-4.9492 3.2812-7.9219v-7.4453c0-11.676 6.2266-22.461 16.336-28.301 10.109-5.8359 22.566-5.8359 32.676 0 10.113 5.8398 16.34 16.625 16.34 28.301v7.5039c0 2.9688 1.1797 5.8203 3.2812 7.918 2.0977 2.1016 4.9492 3.2812 7.918 3.2812h28v49.449h-143.7zm200.65 28v0.003907c8.9141 0 17.461 3.5391 23.762 9.8398 6.3008 6.3008 9.8398 14.848 9.8398 23.758v291.2c0 8.9141-3.5391 17.461-9.8398 23.762-6.3008 6.3008-14.848 9.8398-23.762 9.8398h-257.54c-8.9102 0-17.457-3.5391-23.758-9.8398-6.3008-6.3008-9.8398-14.848-9.8398-23.762v-291.2c0-8.9102 3.5391-17.457 9.8398-23.758 6.3008-6.3008 14.848-9.8398 23.758-9.8398h34.551v32.648h0.003906c0 2.9688 1.1797 5.8164 3.2773 7.918 2.1016 2.1016 4.9492 3.2812 7.9219 3.2812h166.09c2.9727 0 5.8203-1.1797 7.9219-3.2812 2.0977-2.1016 3.2773-4.9492 3.2773-7.918v-32.648z"/>
  <path d="m415.07 284.76-88.258 78.398-40.879-46.367h0.003906c-4.0977-4.6406-11.184-5.0781-15.82-0.98047-4.6406 4.0977-5.0781 11.18-0.98047 15.82l48.328 54.766c1.9727 2.2305 4.7539 3.5781 7.7266 3.7539h0.67188c2.7422 0.007812 5.3906-0.98828 7.4492-2.8008l96.656-85.68c4.6367-4.0977 5.0781-11.18 0.98047-15.82-4.0977-4.6406-11.184-5.0781-15.82-0.98047z"/>
  <use x="70" y="644" xlink:href="#u"/>
  <use x="90.550781" y="644" xlink:href="#c"/>
  <use x="104.359375" y="644" xlink:href="#a"/>
  <use x="123.347656" y="644" xlink:href="#e"/>
  <use x="142.242188" y="644" xlink:href="#b"/>
  <use x="155.628906" y="644" xlink:href="#a"/>
  <use x="174.617188" y="644" xlink:href="#j"/>
  <use x="204.410156" y="644" xlink:href="#i"/>
  <use x="224.453125" y="644" xlink:href="#h"/>
  <use x="252.453125" y="644" xlink:href="#g"/>
  <use x="274.011719" y="644" xlink:href="#e"/>
  <use x="292.90625" y="644" xlink:href="#f"/>
  <use x="302.503906" y="644" xlink:href="#t"/>
  <use x="312.101562" y="644" xlink:href="#s"/>
  <use x="330.351562" y="644" xlink:href="#a"/>
  <use x="70" y="672" xlink:href="#r"/>
  <use x="82.183594" y="672" xlink:href="#c"/>
  <use x="95.992188" y="672" xlink:href="#d"/>
  <use x="115.226562" y="672" xlink:href="#q"/>
  <use x="154.152344" y="672" xlink:href="#b"/>
  <use x="167.535156" y="672" xlink:href="#p"/>
  <use x="187.46875" y="672" xlink:href="#a"/>
  <use x="216.207031" y="672" xlink:href="#o"/>
  <use x="239.640625" y="672" xlink:href="#d"/>
  <use x="258.878906" y="672" xlink:href="#n"/>
  <use x="278.8125" y="672" xlink:href="#m"/>
  <use x="308.492188" y="672" xlink:href="#l"/>
  <use x="329.015625" y="672" xlink:href="#c"/>
  <use x="342.820312" y="672" xlink:href="#d"/>
  <use x="362.058594" y="672" xlink:href="#f"/>
  <use x="371.65625" y="672" xlink:href="#a"/>
  <use x="390.648438" y="672" xlink:href="#k"/>
  <use x="407.242188" y="672" xlink:href="#b"/>
 </g>
</svg>
