<?xml version="1.0" encoding="UTF-8"?>
<svg width="700pt" height="700pt" version="1.1" viewBox="0 0 700 700" fill="#fff" xmlns="http://www.w3.org/2000/svg" xmlns:xlink="http://www.w3.org/1999/xlink">
 <g>
  <path d="m529.2 291.2v100.8c0 18.535-15.062 33.602-33.602 33.602h-291.2c-18.535 0-33.602-15.062-33.602-33.602l0.003906-100.8c0-6.1602 4.9844-11.199 11.199-11.199s11.199 5.0391 11.199 11.199v100.8c0 6.1602 5.0391 11.199 11.199 11.199h291.2c6.1602 0 11.199-5.0391 11.199-11.199l0.003906-100.8c0-6.1602 4.9844-11.199 11.199-11.199s11.199 5.0391 11.199 11.199zm-187.09 63.898c2.1836 2.1836 5.0391 3.3008 7.8945 3.3008s5.7109-1.1211 7.8945-3.3047l56-56c4.3672-4.3672 4.3672-11.48 0-15.848-4.3672-4.3672-11.48-4.3672-15.848 0l-36.848 36.906v-174.55c0-6.1602-4.9844-11.199-11.199-11.199s-11.199 5.0391-11.199 11.199v174.55l-36.902-36.902c-4.3672-4.3672-11.48-4.3672-15.848 0-4.3672 4.3672-4.3672 11.48 0 15.848z"/>
  <use x="70" y="644" xlink:href="#w"/>
  <use x="90.550781" y="644" xlink:href="#d"/>
  <use x="104.359375" y="644" xlink:href="#b"/>
  <use x="123.347656" y="644" xlink:href="#j"/>
  <use x="142.242188" y="644" xlink:href="#c"/>
  <use x="155.628906" y="644" xlink:href="#b"/>
  <use x="174.617188" y="644" xlink:href="#i"/>
  <use x="204.410156" y="644" xlink:href="#f"/>
  <use x="224.453125" y="644" xlink:href="#e"/>
  <use x="252.453125" y="644" xlink:href="#h"/>
  <use x="272.617188" y="644" xlink:href="#b"/>
  <use x="291.609375" y="644" xlink:href="#c"/>
  <use x="304.992188" y="644" xlink:href="#e"/>
  <use x="323.242188" y="644" xlink:href="#a"/>
  <use x="352.226562" y="644" xlink:href="#v"/>
  <use x="373.898438" y="644" xlink:href="#d"/>
  <use x="387.707031" y="644" xlink:href="#g"/>
  <use x="407.054688" y="644" xlink:href="#u"/>
  <use x="437.9375" y="644" xlink:href="#g"/>
  <use x="447.535156" y="644" xlink:href="#f"/>
  <use x="467.578125" y="644" xlink:href="#a"/>
  <use x="486.8125" y="644" xlink:href="#t"/>
  <use x="512.679687" y="644" xlink:href="#a"/>
  <use x="70" y="672" xlink:href="#s"/>
  <use x="82.183594" y="672" xlink:href="#d"/>
  <use x="95.992188" y="672" xlink:href="#a"/>
  <use x="115.226562" y="672" xlink:href="#r"/>
  <use x="154.152344" y="672" xlink:href="#c"/>
  <use x="167.535156" y="672" xlink:href="#q"/>
  <use x="187.46875" y="672" xlink:href="#b"/>
  <use x="216.207031" y="672" xlink:href="#p"/>
  <use x="239.640625" y="672" xlink:href="#a"/>
  <use x="258.878906" y="672" xlink:href="#o"/>
  <use x="278.8125" y="672" xlink:href="#n"/>
  <use x="308.492188" y="672" xlink:href="#m"/>
  <use x="329.015625" y="672" xlink:href="#d"/>
  <use x="342.820312" y="672" xlink:href="#a"/>
  <use x="362.058594" y="672" xlink:href="#l"/>
  <use x="371.65625" y="672" xlink:href="#b"/>
  <use x="390.648438" y="672" xlink:href="#k"/>
  <use x="407.242188" y="672" xlink:href="#c"/>
 </g>
</svg>
