<?xml version="1.0" encoding="UTF-8"?>
<svg width="700pt" height="700pt" version="1.1" viewBox="0 0 700 700" fill="#fff" xmlns="http://www.w3.org/2000/svg" xmlns:xlink="http://www.w3.org/1999/xlink">
 <g>
  <path d="m618.62 114.73c-29.859-29.75-99.203 18.047-141.09 51.953v-118.12c0-25.484-20.781-46.266-46.266-46.266h-138.36c-7.4375 0-14.875 1.8594-21.547 5.25l-173.91 76.344c-0.4375 0.21875-0.76562 0.32812-1.2031 0.54688-14.766 8.0938-24.062 23.734-24.062 40.688v386.42c0 25.484 20.781 46.266 46.266 46.266h312.7c25.484 0 46.266-20.781 46.266-46.266v-162.64c12.031-10.609 24.172-21.875 36.094-33.906 56.766-56.656 142.62-162.75 105.11-200.27zm-349.02-72.734v55.016h-125.34zm176.97 469.55c0 8.5312-6.8906 15.422-15.422 15.422h-312.7c-8.5312 0-15.422-6.8906-15.422-15.422v-383.69h182c8.5312 0 15.422-6.8906 15.422-15.422v-79.406h130.7c8.5312 0 15.422 6.8906 15.422 15.422v144.48c-9.9531 8.9688-19.469 18.047-28.219 26.797-43.422 43.531-79.406 89.578-98.656 126.44-1.6406 3.1719-2.0781 6.7812-1.4219 10.062l-43.75 20.234c-4.9219 2.2969-8.3125 6.8906-8.9688 12.25l-7.9844 70.328c-0.875 8.8594 5.5781 16.734 15.312 17.172 0.54688 0 71.969-8.0938 71.969-8.0938 5.3594-0.65625 10.062-4.0469 12.25-8.9688l20.016-43.859c3.3906 0.98438 7.875-0.32812 10.172-1.4219 18.047-9.4062 38.281-22.969 59.281-39.266zm-107.52-130.7 13.672 13.672-20.016 43.859-42.219 4.8125 4.8125-42.328zm152.69-87.609c-37.406 37.516-76.453 68.906-108.94 87.828l-30.297-30.297c18.812-32.484 50.312-71.641 87.719-109.16 118.12-113.75 156.3-105.11 156.41-105.22 5.6875 12.578-24.828 76.781-104.89 156.84z"/>
  <path d="m159.03 202.23h220.39c8.5312 0 15.422-6.8906 15.422-15.422s-6.8906-15.422-15.422-15.422h-220.39c-8.5312 0-15.422 6.8906-15.422 15.422-0.10938 8.5312 6.8906 15.422 15.422 15.422z"/>
  <path d="m159.03 296.73h139.45c8.5312 0 15.422-6.8906 15.422-15.422s-6.8906-15.422-15.422-15.422h-139.45c-8.5312 0-15.422 6.8906-15.422 15.422-0.10938 8.5312 6.8906 15.422 15.422 15.422z"/>
  <path d="m210.88 360.39h-51.844c-8.5312 0-15.422 6.8906-15.422 15.422s6.8906 15.422 15.422 15.422h51.844c8.5312 0 15.422-6.8906 15.422-15.422s-6.8906-15.422-15.422-15.422z"/>
  <path d="m210.88 455h-51.844c-8.5312 0-15.422 6.8906-15.422 15.422s6.8906 15.422 15.422 15.422h51.844c8.5312 0 15.422-6.8906 15.422-15.422s-6.8906-15.422-15.422-15.422z"/>
  <use x="70" y="576.40625" xlink:href="#u"/>
  <use x="74.011719" y="576.40625" xlink:href="#b"/>
  <use x="76.710938" y="576.40625" xlink:href="#a"/>
  <use x="80.417969" y="576.40625" xlink:href="#e"/>
  <use x="84.109375" y="576.40625" xlink:href="#d"/>
  <use x="86.722656" y="576.40625" xlink:href="#a"/>
  <use x="90.433594" y="576.40625" xlink:href="#k"/>
  <use x="96.25" y="576.40625" xlink:href="#j"/>
  <use x="100.167969" y="576.40625" xlink:href="#i"/>
  <use x="105.636719" y="576.40625" xlink:href="#h"/>
  <use x="107.667969" y="576.40625" xlink:href="#g"/>
  <use x="110.910156" y="576.40625" xlink:href="#c"/>
  <use x="114.667969" y="576.40625" xlink:href="#f"/>
  <use x="120.464844" y="576.40625" xlink:href="#t"/>
  <use x="124.203125" y="576.40625" xlink:href="#e"/>
  <use x="127.890625" y="576.40625" xlink:href="#s"/>
  <use x="129.765625" y="576.40625" xlink:href="#b"/>
  <use x="70" y="581.875" xlink:href="#r"/>
  <use x="72.378906" y="581.875" xlink:href="#b"/>
  <use x="75.078125" y="581.875" xlink:href="#c"/>
  <use x="78.832031" y="581.875" xlink:href="#q"/>
  <use x="86.4375" y="581.875" xlink:href="#d"/>
  <use x="89.050781" y="581.875" xlink:href="#p"/>
  <use x="92.941406" y="581.875" xlink:href="#a"/>
  <use x="98.554688" y="581.875" xlink:href="#o"/>
  <use x="103.132812" y="581.875" xlink:href="#c"/>
  <use x="106.890625" y="581.875" xlink:href="#n"/>
  <use x="110.785156" y="581.875" xlink:href="#f"/>
  <use x="116.582031" y="581.875" xlink:href="#m"/>
  <use x="120.589844" y="581.875" xlink:href="#b"/>
  <use x="123.285156" y="581.875" xlink:href="#c"/>
  <use x="127.042969" y="581.875" xlink:href="#l"/>
  <use x="128.917969" y="581.875" xlink:href="#a"/>
  <use x="132.625" y="581.875" xlink:href="#g"/>
  <use x="135.867188" y="581.875" xlink:href="#d"/>
 </g>
</svg>
