<?xml version="1.0" encoding="UTF-8"?>
<svg width="700pt" height="700pt" version="1.1" viewBox="0 0 700 700" xmlns="http://www.w3.org/2000/svg">
 <g>
  <path d="m281.71 102.27c-37.188 0-67.461 30.258-67.461 67.461s30.258 67.445 67.461 67.445 67.445-30.258 67.445-67.445c0-37.184-30.258-67.461-67.445-67.461z"/>
  <path d="m366.26 280.61c-24.113-18.078-53.41-28.156-84.559-28.156-78.141 0.015625-141.7 63.594-141.7 141.71 0 9.6602 7.8398 17.5 17.5 17.5h95.461c10.625-61.688 54.898-111.97 113.3-131.06z"/>
  <path d="m418.29 298.52c-78.137 0-141.7 63.578-141.7 141.71 0 9.6602 7.8398 17.5 17.5 17.5h248.41c9.6758 0 17.5-7.8398 17.5-17.5 0-78.137-63.578-141.71-141.71-141.71z"/>
  <path d="m418.29 148.33c-37.188 0-67.445 30.258-67.445 67.461 0 37.203 30.258 67.445 67.445 67.445 37.203 0 67.461-30.258 67.461-67.445 0-37.184-30.258-67.461-67.461-67.461z"/>
 </g>
</svg>
