<?xml version="1.0" encoding="UTF-8"?>
<svg width="700pt" height="700pt" version="1.1" viewBox="0 0 700 700" xmlns="http://www.w3.org/2000/svg" xmlns:xlink="http://www.w3.org/1999/xlink">
 <g>
  <path d="m350 0c30.855 0 58.285 20.57 67.43 49.145h27.43c9.1445 0 14.855 6.8555 14.855 14.855v18.285h30.855c26.285 0 48 21.715 48 49.145v379.43c0 26.285-21.715 49.145-48 49.145h-280c-27.43 0-49.145-22.855-49.145-49.145v-379.43c0-27.43 21.715-49.145 49.145-49.145h29.715v-18.285c0-8 6.8555-14.855 14.855-14.855h27.43c9.1445-28.57 36.57-49.145 67.43-49.145zm109.71 112v18.285c0 8-6.8555 14.855-14.855 14.855h-189.71c-8 0-14.855-6.8555-14.855-14.855v-18.285h-29.715c-11.43 0-20.57 8-20.57 19.43v379.43c0 10.285 9.1445 19.43 20.57 19.43h280c10.285 0 19.43-9.1445 19.43-19.43v-379.43c0-11.43-9.1445-19.43-19.43-19.43zm-109.71-83.43c-20.57 0-38.855 16-41.145 36.57-1.1445 8-6.8555 13.715-14.855 13.715h-24v36.57h161.14v-36.57h-25.145c-6.8555 0-13.715-5.7148-14.855-13.715-2.2852-20.57-19.43-36.57-41.145-36.57z"/>
  <path d="m350 48c10.285 0 19.43 9.1445 19.43 19.43 0 10.285-9.1445 19.43-19.43 19.43s-19.43-9.1445-19.43-19.43c0-10.285 9.1445-19.43 19.43-19.43z" fill-rule="evenodd"/>
  <path d="m236.86 219.43c-8 0-14.855-6.8555-14.855-14.855s6.8555-14.855 14.855-14.855h126.86c8 0 14.855 6.8555 14.855 14.855s-6.8555 14.855-14.855 14.855z"/>
  <path d="m236.86 304c-8 0-14.855-6.8555-14.855-14.855s6.8555-14.855 14.855-14.855h217.14c8 0 14.855 6.8555 14.855 14.855s-6.8555 14.855-14.855 14.855z"/>
  <path d="m236.86 388.57c-8 0-14.855-6.8555-14.855-14.855s6.8555-14.855 14.855-14.855h217.14c8 0 14.855 6.8555 14.855 14.855s-6.8555 14.855-14.855 14.855z"/>
  <path d="m236.86 473.14c-8 0-14.855-6.8555-14.855-14.855s6.8555-14.855 14.855-14.855h217.14c8 0 14.855 6.8555 14.855 14.855s-6.8555 14.855-14.855 14.855z"/>
  <use x="161.429688" y="577.144531" xlink:href="#u"/>
  <use x="165.621094" y="577.144531" xlink:href="#c"/>
  <use x="168.441406" y="577.144531" xlink:href="#a"/>
  <use x="172.316406" y="577.144531" xlink:href="#e"/>
  <use x="176.171875" y="577.144531" xlink:href="#b"/>
  <use x="178.902344" y="577.144531" xlink:href="#a"/>
  <use x="182.777344" y="577.144531" xlink:href="#l"/>
  <use x="188.859375" y="577.144531" xlink:href="#k"/>
  <use x="192.949219" y="577.144531" xlink:href="#j"/>
  <use x="198.664062" y="577.144531" xlink:href="#i"/>
  <use x="203.085938" y="577.144531" xlink:href="#h"/>
  <use x="207.152344" y="577.144531" xlink:href="#a"/>
  <use x="211.03125" y="577.144531" xlink:href="#t"/>
  <use x="214.429688" y="577.144531" xlink:href="#g"/>
  <use x="217.816406" y="577.144531" xlink:href="#s"/>
  <use x="221.617188" y="577.144531" xlink:href="#f"/>
  <use x="225.6875" y="577.144531" xlink:href="#e"/>
  <use x="161.429688" y="582.855469" xlink:href="#r"/>
  <use x="163.914062" y="582.855469" xlink:href="#c"/>
  <use x="166.734375" y="582.855469" xlink:href="#d"/>
  <use x="170.660156" y="582.855469" xlink:href="#q"/>
  <use x="178.601562" y="582.855469" xlink:href="#b"/>
  <use x="181.332031" y="582.855469" xlink:href="#f"/>
  <use x="185.402344" y="582.855469" xlink:href="#a"/>
  <use x="191.265625" y="582.855469" xlink:href="#p"/>
  <use x="196.050781" y="582.855469" xlink:href="#d"/>
  <use x="199.976562" y="582.855469" xlink:href="#o"/>
  <use x="204.042969" y="582.855469" xlink:href="#h"/>
  <use x="210.101562" y="582.855469" xlink:href="#n"/>
  <use x="214.289062" y="582.855469" xlink:href="#c"/>
  <use x="217.105469" y="582.855469" xlink:href="#d"/>
  <use x="221.03125" y="582.855469" xlink:href="#m"/>
  <use x="222.992188" y="582.855469" xlink:href="#a"/>
  <use x="226.867188" y="582.855469" xlink:href="#g"/>
  <use x="230.253906" y="582.855469" xlink:href="#b"/>
 </g>
</svg>
