<?xml version="1.0" encoding="UTF-8"?>
<svg width="700pt" height="700pt" version="1.1" fill="#fff" viewBox="0 0 700 700" xmlns="http://www.w3.org/2000/svg">
 <g>
  <path d="m367.5 315c0 9.6641-7.8359 17.5-17.5 17.5s-17.5-7.8359-17.5-17.5 7.8359-17.5 17.5-17.5 17.5 7.8359 17.5 17.5"/>
  <path d="m399.35 297.5h19.074c11.562-0.89062 22.418-5.9336 30.555-14.199s13.012-19.199 13.719-30.777l8.2266-95.023h-15.926v-17.5c-0.027344-23.199-9.2539-45.438-25.66-61.84-16.402-16.406-38.641-25.633-61.84-25.66h-35c-23.199 0.027344-45.438 9.2539-61.84 25.66-16.406 16.402-25.633 38.641-25.66 61.84v17.5h-15.926l8.3984 95.727h0.003906c0.78125 11.453 5.6758 22.238 13.777 30.375 8.1016 8.1328 18.871 13.07 30.32 13.898h19.074c4.8086-13.727 15.117-24.828 28.445-30.645 13.332-5.8125 28.48-5.8125 41.812 0 13.328 5.8164 23.637 16.918 28.445 30.645zm-119.35-140v-17.5c0-13.926 5.5312-27.277 15.375-37.125 9.8477-9.8438 23.199-15.375 37.125-15.375h35c13.926 0 27.277 5.5312 37.125 15.375 9.8438 9.8477 15.375 23.199 15.375 37.125v17.5z"/>
  <path d="m505.93 159.07-8.3984 97.301h-0.003906c-1.6953 20.129-10.656 38.953-25.211 52.961-14.555 14.008-33.707 22.242-53.887 23.164h-19.074c-4.8086 13.727-15.117 24.828-28.445 30.645-13.332 5.8125-28.48 5.8125-41.812 0-13.328-5.8164-23.637-16.918-28.445-30.645h-19.074c-20.062-0.86328-39.133-8.9883-53.648-22.867-14.52-13.875-23.504-32.555-25.277-52.559l-8.5742-98c-20.105 3.6719-38.285 14.281-51.367 29.984-13.078 15.707-20.23 35.504-20.207 55.941v175c0 23.207 9.2188 45.461 25.629 61.871s38.664 25.629 61.871 25.629h280c23.207 0 45.461-9.2188 61.871-25.629s25.629-38.664 25.629-61.871v-175c0.023438-20.438-7.1289-40.234-20.207-55.941-13.082-15.703-31.262-26.312-51.367-29.984z"/>
 </g>
</svg>
