<?xml version="1.0" encoding="UTF-8"?>
<svg width="20" height="20" version="1.1" viewBox="0 0 700 700" fill="#fff" xmlns="http://www.w3.org/2000/svg">
 <g>
  <path d="m572.35 485.88v-362.35c0-31.789-25.859-57.648-57.645-57.648h-41.176v-24.707c0-13.637-11.07-24.707-24.707-24.707h-197.65c-13.637 0-24.707 11.066-24.707 24.707v24.707h-41.176c-31.785 0-57.645 25.859-57.645 57.648v362.35c0 31.789 25.859 57.648 57.645 57.648h329.41c31.789 0 57.648-25.859 57.648-57.648zm-296.47-420h148.23v32.941h-148.23zm247.06 420c0 4.5312-3.707 8.2344-8.2344 8.2344h-329.41c-4.5312 0-8.2344-3.707-8.2344-8.2344v-362.35c0-4.5312 3.707-8.2383 8.2344-8.2383h41.176v8.2344c0 13.641 11.07 24.707 24.707 24.707h197.65c13.637 0 24.707-11.066 24.707-24.707v-8.2344h41.176c4.5312 0 8.2344 3.707 8.2344 8.2344z"/>
  <path d="m456.05 213.11-163.7 163.72-48.406-48.406c-9.6523-9.6523-25.281-9.6523-34.934 0-9.6523 9.6523-9.6523 25.281 0 34.934l65.883 65.883c9.6523 9.6523 25.281 9.6523 34.934 0l181.18-181.18c9.6523-9.6523 9.6523-25.281 0-34.934-9.6523-9.6562-25.297-9.6562-34.949-0.019531z"/>
 </g>
</svg>
