<svg width="16" height="16" viewBox="0 0 16 16" fill="none" xmlns="http://www.w3.org/2000/svg">
<path d="M0 8C0 0 0 0 8 0C16 0 16 0 16 8C16 16 16 16 8 16C0 16 0 16 0 8Z" fill="#971641"/>
<path d="M10.7473 8.46441L6.77059 10.9254C6.4331 11.134 6 10.8814 6 10.4608V5.53882C6 5.11888 6.43248 4.86558 6.77059 5.07489L10.7473 7.53588C10.824 7.58262 10.8879 7.65018 10.9322 7.73172C10.9766 7.81326 11 7.90586 11 8.00014C11 8.09443 10.9766 8.18703 10.9322 8.26857C10.8879 8.3501 10.824 8.41767 10.7473 8.46441Z" fill="white"/>
</svg>
