<svg width="16" height="16" viewBox="0 0 16 16" fill="none" xmlns="http://www.w3.org/2000/svg">
<path d="M0 8C0 0 0 0 8 0C16 0 16 0 16 8C16 16 16 16 8 16C0 16 0 16 0 8Z" fill="#B55539"/>
<path d="M7.8125 4.70508H5.5625C5.24609 4.70508 5 4.95117 5 5.26758V12.0176C5 12.3164 5.24609 12.5801 5.5625 12.5801C5.86133 12.5801 6.125 12.3164 6.125 12.0176V10.3301H7.8125C9.35938 10.3301 10.625 9.06445 10.625 7.51758C10.625 5.98828 9.35938 4.70508 7.8125 4.70508ZM7.8125 9.1875H6.125V5.83008H7.8125C8.72656 5.83008 9.5 6.58594 9.5 7.51758C9.5 8.43164 8.72656 9.1875 7.8125 9.1875Z" fill="white"/>
</svg>
