<svg width="16" height="16" viewBox="0 0 16 16" fill="none" xmlns="http://www.w3.org/2000/svg">
  <path d="M0 8C0 0 0 0 8 0C16 0 16 0 16 8C16 16 16 16 8 16C0 16 0 16 0 8Z" fill="#49629E"/>
  <rect x="6" y="3.23364" width="1.85" height="1.23333" rx="0.616667" fill="white"/>
  <rect x="7.23828" y="2" width="1.85" height="1.23333" rx="0.616667" fill="white"/>
  <rect x="7.23828" y="4.4668" width="1.85" height="1.23333" rx="0.616667" fill="white"/>
  <rect x="6" y="5.69995" width="1.85" height="1.23333" rx="0.616667" fill="white"/>
  <rect x="7.23828" y="6.93311" width="1.85" height="1.23333" rx="0.616667" fill="white"/>
  <path d="M6.41204 9.91378C6.41204 9.67143 6.51304 9.43901 6.69283 9.26764C6.87262 9.09627 7.11647 9 7.37073 9H8.32941C8.58367 9 8.82752 9.09627 9.0073 9.26764C9.18709 9.43901 9.2881 9.67143 9.2881 9.91378V10.7709L9.67157 12.232C9.71935 12.4149 9.70667 12.6073 9.63528 12.783C9.56389 12.9586 9.43727 13.109 9.27276 13.2134L8.38118 13.78C8.22374 13.88 8.03878 13.9333 7.84959 13.9333C7.6604 13.9333 7.47544 13.88 7.318 13.78L6.42642 13.2134C6.26208 13.1089 6.13566 12.9585 6.06444 12.7828C5.99322 12.6071 5.98069 12.4148 6.02856 12.232L6.41204 10.7709V9.91378ZM8.32941 9.91378H7.37073V10.7709C7.37072 10.8458 7.36106 10.9203 7.34196 10.993L6.95849 12.4532L7.85007 13.0197L8.74165 12.4532L8.35817 10.993C8.33908 10.9203 8.32942 10.8458 8.32941 10.7709V9.91378Z" fill="white"/>
</svg>
