<svg width="16" height="16" viewBox="0 0 16 16" fill="none" xmlns="http://www.w3.org/2000/svg">
<path d="M0 8C0 0 0 0 8 0C16 0 16 0 16 8C16 16 16 16 8 16C0 16 0 16 0 8Z" fill="#569ACE"/>
<path d="M11.834 5.91406L9.86523 11.1641C9.79688 11.3281 9.63281 11.4512 9.45508 11.4512C9.44141 11.4512 9.44141 11.4512 9.42773 11.4512C9.25 11.4375 9.08594 11.3145 9.03125 11.123L7.9375 7.32227L6.81641 11.123C6.76172 11.3145 6.59766 11.4375 6.41992 11.4512C6.22852 11.4512 6.05078 11.3418 5.99609 11.1641L4.02734 5.91406C3.93164 5.68164 4.05469 5.43555 4.27344 5.35352C4.50586 5.25781 4.75195 5.38086 4.83398 5.59961L6.35156 9.60547L7.51367 5.62695C7.56836 5.44922 7.73242 5.32617 7.9375 5.32617C8.12891 5.32617 8.29297 5.44922 8.34766 5.64062L9.50977 9.61914L11.0273 5.61328C11.1094 5.39453 11.3555 5.27148 11.5879 5.35352C11.8066 5.43555 11.9297 5.68164 11.834 5.91406Z" fill="white"/>
</svg>
