<svg width="16" height="16" viewBox="0 0 16 16" fill="none" xmlns="http://www.w3.org/2000/svg">
  <path d="M0 8C0 0 0 0 8 0C16 0 16 0 16 8C16 16 16 16 8 16C0 16 0 16 0 8Z" fill="#1264A3"/>
  <path d="M4.89387 7.63211C5.02051 7.45564 5.3371 7.45564 5.46373 7.63211L8.31304 11.6027C8.43967 11.7792 8.28138 11.9998 8.02811 11.9998H2.3295C2.07623 11.9998 1.91793 11.7792 2.04457 11.6027L4.89387 7.63211Z" fill="white"/>
  <path d="M9.76692 6.17647C9.94783 5.94118 10.4001 5.94118 10.581 6.17647L14.6514 11.4706C14.8323 11.7059 14.6062 12 14.2444 12H6.10353C5.74171 12 5.51558 11.7059 5.69648 11.4706L9.76692 6.17647Z" fill="white"/>
  <circle cx="6.5" cy="4.5" r="1.5" fill="white"/>
</svg>
