<svg width="16" height="16" viewBox="0 0 16 16" fill="none" xmlns="http://www.w3.org/2000/svg">
  <path d="M0 8C0 0 0 0 8 0C16 0 16 0 16 8C16 16 16 16 8 16C0 16 0 16 0 8Z" fill="#70A75D"/>
    <path d="M3 4.25C3 3.91848 3.1317 3.60054 3.36612 3.36612C3.60054 3.1317 3.91848 3 4.25 3H11.75C12.0815 3 12.3995 3.1317 12.6339 3.36612C12.8683 3.60054 13 3.91848 13 4.25V11.75C13 12.0815 12.8683 12.3995 12.6339 12.6339C12.3995 12.8683 12.0815 13 11.75 13H4.25C3.91848 13 3.60054 12.8683 3.36612 12.6339C3.1317 12.3995 3 12.0815 3 11.75V4.25ZM12.375 5.5H9.875V7.375H12.375V5.5ZM12.375 8H9.875V9.875H12.375V8ZM12.375 10.5H9.875V12.375H11.75C11.9158 12.375 12.0747 12.3092 12.1919 12.1919C12.3092 12.0747 12.375 11.9158 12.375 11.75V10.5ZM9.25 12.375V10.5H6.75V12.375H9.25ZM6.125 12.375V10.5H3.625V11.75C3.625 11.9158 3.69085 12.0747 3.80806 12.1919C3.92527 12.3092 4.08424 12.375 4.25 12.375H6.125ZM3.625 9.875H6.125V8H3.625V9.875ZM3.625 7.375H6.125V5.5H3.625V7.375ZM6.75 5.5V7.375H9.25V5.5H6.75ZM9.25 8H6.75V9.875H9.25V8Z" fill="white"/>
</svg>
