<svg width="16" height="16" viewBox="0 0 16 16" fill="none" xmlns="http://www.w3.org/2000/svg">
<path d="M0 8C0 0 0 0 8 0C16 0 16 0 16 8C16 16 16 16 8 16C0 16 0 16 0 8Z" fill="#ECBF41"/>
<path d="M8.625 11.125C8.625 11.8156 7.925 12.375 7.0625 12.375C6.2 12.375 5.5 11.8156 5.5 11.125C5.5 10.4344 6.2 9.875 7.0625 9.875C7.925 9.875 8.625 10.4344 8.625 11.125Z" fill="white"/>
<path fill-rule="evenodd" clip-rule="evenodd" d="M8.625 4.875V11.125H8V4.875H8.625Z" fill="white"/>
<path d="M8 4.76256C8.00009 4.61813 8.0502 4.47818 8.1418 4.36652C8.23341 4.25486 8.36087 4.17837 8.5025 4.15006L10.3775 3.77506C10.4681 3.75695 10.5617 3.75916 10.6513 3.78154C10.741 3.80392 10.8246 3.84592 10.8961 3.9045C10.9676 3.96309 11.0252 4.0368 11.0648 4.12033C11.1044 4.20386 11.1249 4.29513 11.125 4.38756V5.50006L8 6.12506V4.76256Z" fill="white"/>
</svg>
