<svg width="16" height="16" viewBox="0 0 16 16" fill="none" xmlns="http://www.w3.org/2000/svg">
<rect width="16" height="16" rx="3.5" fill="#C8295B"/>
<path d="M8.21091 4C7.63274 4 7.34366 4.40771 7.34366 5.07989C7.34366 5.47658 7.47788 5.95041 7.74631 6.50138C7.50885 7.40496 7.13717 8.42975 6.75516 9.2562C5.57817 9.84022 5 10.4022 5 11.0193C5 11.4931 5.40265 12 5.91888 12C6.62094 12 7.15782 10.9421 7.53982 10.1157C8.21091 9.84022 8.9646 9.56474 9.66667 9.42149C10.1313 9.84022 10.5442 10.0496 10.9366 10.0496C11.587 10.0496 12 9.52066 12 9.05785C12 8.58402 11.6386 8.13223 10.854 8.13223C10.5959 8.13223 10.3481 8.18733 10.0383 8.22039C9.61504 7.73554 9.17109 7.07438 8.84071 6.4022C8.95428 5.85124 8.98525 5.47658 8.98525 5.14601C8.98525 4.27548 8.66519 4 8.21091 4ZM8.35546 7.47107C8.61357 7.86777 8.86136 8.24242 9.14012 8.58402C8.70649 8.69421 8.27286 8.8595 7.84956 9.01377C8.02507 8.50689 8.22124 7.98898 8.35546 7.47107Z" fill="white"/>
</svg>
