<svg width="16" height="16" viewBox="0 0 16 16" fill="none" xmlns="http://www.w3.org/2000/svg">
<rect x="0.5" y="0.5" width="15" height="15" rx="1.5" fill="#862912" stroke="#862912" stroke-linejoin="round"/>
<path d="M5.41992 10.971C5.27236 10.9164 5.15348 10.811 5.08832 10.6769C4.94069 10.4053 4.9899 10.1337 5.14889 9.90544C5.29879 9.69052 5.54711 9.5078 5.82798 9.35448C6.18376 9.1679 6.55983 9.01654 6.94996 8.90294C7.25293 8.39929 7.52146 7.87859 7.75397 7.34388C7.61496 7.05179 7.50596 6.74825 7.42843 6.43728C7.36332 6.15725 7.33834 5.88002 7.39361 5.642C7.45039 5.39417 7.60104 5.17155 7.8857 5.06584C8.03106 5.01193 8.18853 4.98183 8.34146 5.01193C8.41839 5.02708 8.4907 5.05786 8.55317 5.10206C8.61563 5.14626 8.66667 5.20276 8.70258 5.26746C8.76921 5.38227 8.79343 5.51669 8.79873 5.6441C8.80403 5.77501 8.78965 5.92063 8.76315 6.07394C8.69956 6.43098 8.55874 6.86783 8.36947 7.32987C8.57834 7.74293 8.82664 8.13794 9.1114 8.5102C9.44838 8.48559 9.7873 8.49733 10.1213 8.5452C10.3969 8.59071 10.677 8.68171 10.8481 8.87073C10.939 8.97155 10.9942 9.09476 10.9995 9.23337C11.0048 9.36779 10.964 9.5008 10.8951 9.62751C10.8354 9.74494 10.7429 9.84548 10.6271 9.91874C10.5126 9.98779 10.3775 10.0216 10.241 10.0154C9.99036 10.0056 9.74583 9.87814 9.53461 9.72342C9.27778 9.52703 9.04635 9.30386 8.84491 9.05835C8.33294 9.11205 7.82705 9.20716 7.33304 9.34258C7.10656 9.71361 6.84806 10.0671 6.56007 10.3997C6.34052 10.6447 6.09977 10.8582 5.85902 10.9507C5.7207 11.0085 5.5638 11.0158 5.41992 10.971ZM6.46392 9.64011C6.33825 9.69332 6.22166 9.74933 6.11643 9.80673C5.86811 9.94255 5.70685 10.0749 5.6266 10.1897C5.55544 10.2912 5.55392 10.3647 5.59632 10.4424C5.60389 10.4578 5.61146 10.4676 5.616 10.4732C5.62503 10.471 5.63388 10.4682 5.6425 10.4648C5.74622 10.4256 5.91126 10.3003 6.12324 10.0644C6.2438 9.92787 6.35748 9.7863 6.46392 9.64011ZM7.70552 8.70902C7.95832 8.65441 8.21341 8.60934 8.47016 8.5739C8.33225 8.37887 8.20343 8.17846 8.08406 7.97324C7.96533 8.22149 7.8391 8.46661 7.70552 8.70832V8.70902ZM9.55732 9.02405C9.67088 9.13746 9.78141 9.23407 9.88665 9.31108C10.0683 9.44409 10.1948 9.4882 10.2637 9.4903C10.2821 9.49253 10.3008 9.48882 10.3167 9.4798C10.3482 9.4568 10.3727 9.42665 10.3878 9.39229C10.4147 9.34964 10.4301 9.3016 10.4325 9.25227C10.4321 9.23583 10.425 9.22011 10.4128 9.20817C10.3734 9.16477 10.2614 9.10176 10.0206 9.06185C9.86751 9.03819 9.71258 9.02578 9.55732 9.02475V9.02405ZM8.05075 6.5696C8.11446 6.37954 8.16504 6.18593 8.20216 5.98994C8.22563 5.85832 8.23471 5.74981 8.23093 5.6644C8.23114 5.61728 8.22295 5.57045 8.2067 5.52579C8.16883 5.53012 8.13185 5.53956 8.09693 5.55379C8.03106 5.57829 7.97731 5.628 7.94854 5.75191C7.91826 5.88632 7.92583 6.08024 7.98337 6.32737C8.00154 6.40508 8.02425 6.48629 8.0515 6.5696H8.05075Z" fill="#E5E5E5"/>
</svg>
