<?xml version="1.0" encoding="UTF-8"?>
<svg width="700pt" height="700pt" version="1.1" viewBox="0 0 700 700" fill="#fff" xmlns="http://www.w3.org/2000/svg">
 <path stroke="green" d="m507.5 0h-315c-32.488 0-63.648 12.906-86.621 35.879s-35.879 54.133-35.879 86.621v315c0 32.488 12.906 63.648 35.879 86.621s54.133 35.879 86.621 35.879h315c32.488 0 63.648-12.906 86.621-35.879s35.879-54.133 35.879-86.621v-315c0-32.488-12.906-63.648-35.879-86.621s-54.133-35.879-86.621-35.879zm-197.57 414.93c-3.2852 3.3125-7.7578 5.1758-12.426 5.1758s-9.1406-1.8633-12.426-5.1758l-87.5-87.5 24.852-24.852 75.074 75.25 215.07-215.25 24.852 24.852z"/>
</svg>
