<?xml version="1.0" encoding="UTF-8"?>
<svg width="700pt" height="700pt" version="1.1" viewBox="0 0 700 700" fill="#fff" xmlns="http://www.w3.org/2000/svg">
 <path d="m420 54.426c3.3242 1.3984 6.4766 3.3242 9.1016 5.9492 2.4492 3.5 78.227 76.824 76.125 79.625h-76.477c-4.8984 0-8.75-3.8516-8.75-8.75zm-72.273 304.68c-2.8008 0-5.4258-1.3984-7-3.5l-36.398-48.824c-6.8242-9.1016 7.1758-19.602 14-10.5l30.449 40.773 59.5-59.324c-7.875-14.523-23.102-24.676-40.773-24.676h-41.301c-25.551 0-46.375 20.824-46.375 46.375v41.301c0 25.551 20.824 46.375 46.375 46.375h41.301c25.551 0 46.375-20.824 46.375-46.375v-41.301s-0.17578-1.5742-0.17578-2.4492l-59.676 59.676c-1.5742 1.5742-3.8516 2.625-6.125 2.625zm159.77-201.6v306.25c0 24.148-19.602 43.75-43.75 43.75h-227.5c-24.148 0-43.75-19.602-43.75-43.75v-367.5c0-24.148 19.602-43.75 43.75-43.75h166.25v78.75c0 14.523 11.727 26.25 26.25 26.25zm-49.699 70.523-36.75 36.75c-11.375-17.676-31.148-29.398-53.551-29.398h-41.301c-35.176 0-63.875 28.699-63.875 63.875v41.301c0 35.176 28.699 63.875 63.875 63.875h41.301c35.176 0 63.875-28.699 63.875-63.875-0.69922-12.426 2.1016-47.25-2.8008-58.625l41.477-41.477c8.2266-7.875-4.5508-20.477-12.426-12.426z"/>
</svg>
