<?xml version="1.0" encoding="UTF-8"?>
<svg width="700pt" height="700pt" version="1.1" viewBox="0 0 700 700" xmlns="http://www.w3.org/2000/svg">
 <path d="m455 507.5c23.199-0.027344 45.438-9.2539 61.84-25.66 16.406-16.402 25.633-38.641 25.66-61.84v-280c-0.027344-23.199-9.2539-45.438-25.66-61.84-16.402-16.406-38.641-25.633-61.84-25.66h-210c-23.199 0.027344-45.438 9.2539-61.84 25.66-16.406 16.402-25.633 38.641-25.66 61.84v280c0.027344 23.199 9.2539 45.438 25.66 61.84 16.402 16.406 38.641 25.633 61.84 25.66zm52.5-367.5v280c0 13.926-5.5312 27.277-15.375 37.125-9.8477 9.8438-23.199 15.375-37.125 15.375h-192.5v-385h70v122.5c0 4.3242 1.6016 8.4961 4.4961 11.711 2.8945 3.2148 6.875 5.2461 11.176 5.6953 4.3047 0.45312 8.6211-0.70703 12.117-3.25l42.211-30.695 42.211 30.695c3.4961 2.543 7.8125 3.7031 12.117 3.25 4.3008-0.44922 8.2812-2.4805 11.176-5.6953 2.8945-3.2148 4.4961-7.3867 4.4961-11.711v-119.28c10.199 3.6094 19.039 10.277 25.305 19.098 6.2656 8.8242 9.6523 19.363 9.6953 30.184zm-70-52.5v88.129l-24.711-17.953c-2.9883-2.1758-6.5938-3.3477-10.289-3.3477s-7.3008 1.1719-10.289 3.3477l-24.711 17.953v-88.129zm-245 52.5c0.023438-3.2383 0.35156-6.4648 0.98047-9.6406 0.17578-0.98047 0.45312-1.9062 0.69922-2.8711 0.51953-2.1445 1.1719-4.2578 1.9609-6.3164 0.38672-0.98047 0.76953-1.9609 1.207-2.9062 0.94531-2.0469 2.0195-4.0273 3.2188-5.9336 0.45312-0.71875 0.85938-1.4883 1.3281-2.1875h0.003907c1.7461-2.4883 3.6953-4.832 5.8281-7 0.36719-0.36719 0.78906-0.66406 1.1562-1.0156h-0.003906c1.8516-1.7695 3.8281-3.3984 5.918-4.8828 0.80469-0.55859 1.6445-1.0664 2.4688-1.5938l-0.003906 0.003906c1.8516-1.1641 3.7734-2.2031 5.7578-3.1172 0.89062-0.42187 1.75-0.85937 2.7305-1.2266 0.55859-0.21094 1.1719-0.33203 1.75-0.54297v378.51c-0.57812-0.21094-1.1914-0.33203-1.75-0.55859-0.91016-0.36719-1.75-0.78906-2.7109-1.1914-1.9805-0.92969-3.9023-1.9766-5.7578-3.1328-0.82422-0.52344-1.6641-1.0312-2.4688-1.5938-2.0859-1.4805-4.0625-3.1133-5.9141-4.8828-0.36719-0.35156-0.78906-0.64844-1.1562-1.0156-2.1328-2.168-4.082-4.5078-5.8281-7-0.47266-0.69922-0.875-1.4688-1.3281-2.1875-1.1992-1.9062-2.2773-3.8867-3.2227-5.9297-0.4375-0.94531-0.82422-1.9258-1.207-2.9062-0.78516-2.0664-1.4453-4.1758-1.9766-6.3164-0.22656-0.96094-0.50781-1.9062-0.68359-2.8711-0.63672-3.1914-0.97266-6.4375-0.99609-9.6953z"/>
</svg>
