<?xml version="1.0" encoding="UTF-8"?>
<svg width="700pt" height="700pt" version="1.1" viewBox="0 0 700 700"  fill="#fff" xmlns="http://www.w3.org/2000/svg" xmlns:xlink="http://www.w3.org/1999/xlink">
 <g>
  <path d="m182.34 333.87c10.355 10.059 15.07 24.586 12.602 38.809l-16.746 97.719c-1.8477 10.797 0.41406 21.891 6.3438 31.098 5.9297 9.2109 15.094 15.863 25.684 18.648 10.59 2.7852 21.844 1.5 31.535-3.6016l87.863-46.145c12.758-6.7188 28.008-6.7188 40.766 0l87.863 46.145c9.6914 5.1016 20.945 6.3867 31.535 3.6016 10.59-2.7852 19.754-9.4375 25.684-18.648 5.9297-9.207 8.1914-20.301 6.3438-31.098l-16.801-97.832c-2.4727-14.223 2.2461-28.746 12.602-38.805l71.117-69.16c7.8398-7.6562 12.531-17.969 13.145-28.91 0.61719-10.938-2.8867-21.711-9.8164-30.199-6.9297-8.4844-16.789-14.07-27.629-15.652l-98.227-14.223c-14.262-2.0898-26.59-11.051-32.984-23.969l-44.016-89.039c-4.8828-9.75-13.227-17.324-23.395-21.254-10.172-3.9297-21.438-3.9297-31.609 0-10.168 3.9297-18.512 11.504-23.395 21.254l-43.902 89.039h-0.003907c-6.3906 12.918-18.719 21.879-32.984 23.969l-98.336 14.223c-10.84 1.582-20.699 7.168-27.629 15.652-6.9297 8.4883-10.434 19.262-9.8164 30.199 0.61328 10.941 5.3047 21.254 13.145 28.91z"/>
  <use x="70" y="644" xlink:href="#x"/>
  <use x="90.550781" y="644" xlink:href="#c"/>
  <use x="104.359375" y="644" xlink:href="#a"/>
  <use x="123.347656" y="644" xlink:href="#e"/>
  <use x="142.242188" y="644" xlink:href="#b"/>
  <use x="155.628906" y="644" xlink:href="#a"/>
  <use x="174.617188" y="644" xlink:href="#k"/>
  <use x="204.410156" y="644" xlink:href="#j"/>
  <use x="224.453125" y="644" xlink:href="#i"/>
  <use x="252.453125" y="644" xlink:href="#h"/>
  <use x="262.867188" y="644" xlink:href="#g"/>
  <use x="282.804688" y="644" xlink:href="#w"/>
  <use x="299.46875" y="644" xlink:href="#b"/>
  <use x="312.851562" y="644" xlink:href="#v"/>
  <use x="322.453125" y="644" xlink:href="#f"/>
  <use x="352.132812" y="644" xlink:href="#u"/>
  <use x="373.476562" y="644" xlink:href="#t"/>
  <use x="383.070312" y="644" xlink:href="#e"/>
  <use x="401.96875" y="644" xlink:href="#s"/>
  <use x="420.585938" y="644" xlink:href="#a"/>
  <use x="70" y="672" xlink:href="#r"/>
  <use x="82.183594" y="672" xlink:href="#c"/>
  <use x="95.992188" y="672" xlink:href="#d"/>
  <use x="115.226562" y="672" xlink:href="#q"/>
  <use x="154.152344" y="672" xlink:href="#b"/>
  <use x="167.535156" y="672" xlink:href="#p"/>
  <use x="187.46875" y="672" xlink:href="#a"/>
  <use x="216.207031" y="672" xlink:href="#o"/>
  <use x="239.640625" y="672" xlink:href="#d"/>
  <use x="258.878906" y="672" xlink:href="#g"/>
  <use x="278.8125" y="672" xlink:href="#f"/>
  <use x="308.492188" y="672" xlink:href="#n"/>
  <use x="329.015625" y="672" xlink:href="#c"/>
  <use x="342.820312" y="672" xlink:href="#d"/>
  <use x="362.058594" y="672" xlink:href="#m"/>
  <use x="371.65625" y="672" xlink:href="#a"/>
  <use x="390.648438" y="672" xlink:href="#l"/>
  <use x="407.242188" y="672" xlink:href="#b"/>
 </g>
</svg>
