<?xml version="1.0" encoding="UTF-8"?>
<svg width="700pt" height="700pt" version="1.1" viewBox="0 0 700 700" fill="#fff" xmlns="http://www.w3.org/2000/svg">
 <path d="m186.67 513.33h326.66c6.1914 0 12.125-2.457 16.5-6.832s6.8359-10.312 6.8359-16.5v-420c0-6.1875-2.4609-12.125-6.8359-16.5s-10.309-6.832-16.5-6.832h-326.66c-6.1914 0-12.125 2.457-16.5 6.832s-6.8359 10.312-6.8359 16.5v420c0 6.1875 2.4609 12.125 6.8359 16.5s10.309 6.832 16.5 6.832zm53.504-261.5c4.375-4.375 10.309-6.832 16.496-6.832s12.121 2.457 16.496 6.832l53.504 53.504 100.17-100.17-0.003906 0.003906c5.9258-5.7266 14.434-7.8984 22.379-5.7227 7.9492 2.1797 14.156 8.3867 16.336 16.336 2.1758 7.9453 0.003907 16.453-5.7227 22.379l-116.67 116.67 0.003906-0.003906c-4.375 4.375-10.309 6.832-16.496 6.832s-12.121-2.457-16.496-6.832l-70-70c-4.375-4.375-6.832-10.309-6.832-16.496s2.457-12.121 6.832-16.496z"/>
</svg>
