<?xml version="1.0" encoding="UTF-8"?>
<svg width="700pt" height="700pt" version="1.1"  fill="#fff" viewBox="0 0 700 700" xmlns="http://www.w3.org/2000/svg">
 <g fill="none" stroke="#fff" stroke-linecap="round" stroke-miterlimit="10">
  <path transform="matrix(12.727 0 0 12.727 70 0)" d="m11.9 20.6v9.5001c0 0.49997 0.20011 1.1 0.60003 1.3999 1.1 1.1 3.9 3.0001 9.5001 3.0001s8.4001-1.9001 9.5001-3.0001c0.39992-0.39992 0.60003-0.89989 0.60003-1.3999v-9.5001" stroke-linejoin="round" stroke-width="3"/>
  <path transform="matrix(12.727 0 0 12.727 70 0)" d="m20.4 24.2-13.3-5.6001c-1.7-0.70008-1.7-3.0999 0-3.8l13.3-5.7001c0.99994-0.39992 2.2-0.39992 3.1999 0l13.3 5.7001c1.7 0.70008 1.7 3.0999 0 3.8l-13.3 5.7001c-0.99994 0.29986-2.2 0.29986-3.1999-0.10006z" stroke-linejoin="round" stroke-width="3"/>
  <path transform="matrix(12.727 0 0 12.727 70 0)" d="m38.4 16.6v11.8" stroke-width="2.6"/>
 </g>
</svg>
