<?xml version="1.0" encoding="UTF-8"?>
<svg width="700pt" height="700pt" version="1.1" viewBox="0 0 700 700" fill="#fff" xmlns="http://www.w3.org/2000/svg">
 <path d="m546 0h-392c-14 0-28 11.199-28 28v504c0 14 14 28 28 28h392c14 0 28-14 28-28v-504c0-16.801-14-28-28-28zm-299.6 148.4c11.199-11.199 28-11.199 39.199 0l36.402 36.402 92.398-92.398c11.199-11.199 28-11.199 39.199 0 11.199 11.199 11.199 28 0 39.199l-112 112c-11.199 11.199-28 11.199-39.199 0l-56-56c-11.199-11.203-11.199-28 0-39.203zm131.6 327.6h-168c-16.801 0-28-11.199-28-28s11.199-28 28-28h168c16.801 0 28 11.199 28 28s-11.199 28-28 28zm112-112h-280c-16.801 0-28-11.199-28-28s11.199-28 28-28h280c16.801 0 28 11.199 28 28s-11.199 28-28 28z"/>
</svg>
