<?xml version="1.0" encoding="UTF-8"?>
<svg width="700pt" height="700pt" version="1.1" viewBox="0 0 700 700" xmlns="http://www.w3.org/2000/svg" xmlns:xlink="http://www.w3.org/1999/xlink">
 <defs>
  <symbol id="e" overflow="visible">
   <path d="m31.266-1.875c-1.6172 0.84375-3.2969 1.4766-5.0469 1.8906-1.7422 0.42578-3.5586 0.64062-5.4531 0.64062-5.668 0-10.156-1.582-13.469-4.75-3.3125-3.1641-4.9688-7.4609-4.9688-12.891 0-5.4375 1.6562-9.7383 4.9688-12.906 3.3125-3.1641 7.8008-4.75 13.469-4.75 1.8945 0 3.7109 0.21484 5.4531 0.64062 1.75 0.42969 3.4297 1.0586 5.0469 1.8906v7.0469c-1.625-1.1133-3.2305-1.9258-4.8125-2.4375-1.5742-0.51953-3.2344-0.78125-4.9844-0.78125-3.1367 0-5.6016 1.0078-7.3906 3.0156-1.793 2-2.6875 4.7617-2.6875 8.2812 0 3.5117 0.89453 6.2734 2.6875 8.2812 1.7891 2 4.2539 3 7.3906 3 1.75 0 3.4102-0.25391 4.9844-0.76562 1.582-0.51953 3.1875-1.332 4.8125-2.4375z"/>
  </symbol>
  <symbol id="i" overflow="visible">
   <path d="m22.875-18.578c-0.71094-0.33203-1.418-0.57812-2.125-0.73438-0.71094-0.15625-1.418-0.23438-2.125-0.23438-2.1055 0-3.7266 0.67188-4.8594 2.0156-1.125 1.3438-1.6875 3.2656-1.6875 5.7656v11.766h-8.1562v-25.531h8.1562v4.2031c1.0508-1.6758 2.2539-2.8945 3.6094-3.6562 1.3633-0.76953 2.9922-1.1562 4.8906-1.1562 0.26953 0 0.56641 0.011719 0.89062 0.03125 0.32031 0.023437 0.78516 0.074219 1.3906 0.15625z"/>
  </symbol>
  <symbol id="a" overflow="visible">
   <path d="m29.391-12.828v2.3281h-19.062c0.19531 1.9062 0.88281 3.3398 2.0625 4.2969 1.1875 0.96094 2.8438 1.4375 4.9688 1.4375 1.7188 0 3.4766-0.25391 5.2812-0.76562 1.8008-0.50781 3.6484-1.2812 5.5469-2.3125v6.2969c-1.9297 0.73047-3.8594 1.2773-5.7969 1.6406-1.9297 0.375-3.8555 0.5625-5.7812 0.5625-4.6172 0-8.2031-1.1719-10.766-3.5156s-3.8438-5.6328-3.8438-9.875c0-4.1641 1.2539-7.4414 3.7656-9.8281 2.5195-2.3828 5.9844-3.5781 10.391-3.5781 4.0078 0 7.2188 1.2109 9.625 3.625 2.4062 2.418 3.6094 5.6484 3.6094 9.6875zm-8.375-2.7188c0-1.5391-0.45312-2.7852-1.3594-3.7344-0.90625-0.95703-2.0898-1.4375-3.5469-1.4375-1.5859 0-2.8711 0.44922-3.8594 1.3438-0.98047 0.88672-1.5898 2.1641-1.8281 3.8281z"/>
  </symbol>
  <symbol id="d" overflow="visible">
   <path d="m15.359-11.484c-1.6992 0-2.9805 0.29297-3.8438 0.875-0.85547 0.57422-1.2812 1.4219-1.2812 2.5469 0 1.0312 0.34375 1.8398 1.0312 2.4219 0.69531 0.58594 1.6602 0.875 2.8906 0.875 1.5312 0 2.8164-0.54688 3.8594-1.6406 1.0508-1.1016 1.5781-2.4844 1.5781-4.1406v-0.9375zm12.469-3.0781v14.562h-8.2344v-3.7812c-1.0938 1.5547-2.3242 2.6836-3.6875 3.3906-1.3672 0.69531-3.0273 1.0469-4.9844 1.0469-2.6484 0-4.7969-0.76953-6.4531-2.3125-1.6484-1.5391-2.4688-3.5391-2.4688-6 0-2.9883 1.0312-5.1797 3.0938-6.5781 2.0625-1.4062 5.2969-2.1094 9.7031-2.1094h4.7969v-0.64062c0-1.2891-0.51172-2.2344-1.5312-2.8281-1.0117-0.60156-2.5938-0.90625-4.75-0.90625-1.75 0-3.3828 0.17969-4.8906 0.53125-1.5 0.34375-2.8984 0.86719-4.1875 1.5625v-6.2188c1.75-0.42578 3.5039-0.75 5.2656-0.96875 1.7578-0.21875 3.5234-0.32812 5.2969-0.32812 4.5938 0 7.9102 0.91406 9.9531 2.7344 2.0508 1.8125 3.0781 4.7617 3.0781 8.8438z"/>
  </symbol>
  <symbol id="c" overflow="visible">
   <path d="m12.828-32.766v7.2344h8.4062v5.8438h-8.4062v10.828c0 1.1797 0.23438 1.9805 0.70312 2.4062 0.47656 0.41797 1.4141 0.625 2.8125 0.625h4.1875v5.8281h-7c-3.2188 0-5.5-0.67188-6.8438-2.0156s-2.0156-3.625-2.0156-6.8438v-10.828h-4.0625v-5.8438h4.0625v-7.2344z"/>
  </symbol>
  <symbol id="h" overflow="visible">
   <path d="m21.281-21.781v-13.672h8.2031v35.453h-8.2031v-3.6875c-1.125 1.5-2.3672 2.6016-3.7188 3.2969-1.3438 0.69531-2.9062 1.0469-4.6875 1.0469-3.1484 0-5.7305-1.25-7.75-3.75-2.0234-2.5-3.0312-5.7109-3.0312-9.6406 0-3.9375 1.0078-7.1562 3.0312-9.6562 2.0195-2.5 4.6016-3.75 7.75-3.75 1.7578 0 3.3164 0.35547 4.6719 1.0625 1.3633 0.71094 2.6094 1.8086 3.7344 3.2969zm-5.375 16.516c1.75 0 3.082-0.63281 4-1.9062 0.91406-1.2812 1.375-3.1328 1.375-5.5625 0-2.4375-0.46094-4.2891-1.375-5.5625-0.91797-1.2812-2.25-1.9219-4-1.9219-1.7305 0-3.0586 0.64062-3.9844 1.9219-0.91797 1.2734-1.375 3.125-1.375 5.5625 0 2.4297 0.45703 4.2812 1.375 5.5625 0.92578 1.2734 2.2539 1.9062 3.9844 1.9062z"/>
  </symbol>
  <symbol id="g" overflow="visible">
   <path d="m17.5-5.2656c1.75 0 3.082-0.63281 4-1.9062 0.91406-1.2812 1.375-3.1328 1.375-5.5625 0-2.4375-0.46094-4.2891-1.375-5.5625-0.91797-1.2812-2.25-1.9219-4-1.9219s-3.0938 0.64844-4.0312 1.9375c-0.92969 1.2812-1.3906 3.1328-1.3906 5.5469 0 2.418 0.46094 4.2656 1.3906 5.5469 0.9375 1.2812 2.2812 1.9219 4.0312 1.9219zm-5.4219-16.516c1.125-1.4883 2.3672-2.5859 3.7344-3.2969 1.3633-0.70703 2.9375-1.0625 4.7188-1.0625 3.1445 0 5.7266 1.25 7.75 3.75 2.0195 2.5 3.0312 5.7188 3.0312 9.6562 0 3.9297-1.0117 7.1406-3.0312 9.6406-2.0234 2.5-4.6055 3.75-7.75 3.75-1.7812 0-3.3555-0.35156-4.7188-1.0469-1.3672-0.70703-2.6094-1.8047-3.7344-3.2969v3.6875h-8.1562v-35.453h8.1562z"/>
  </symbol>
  <symbol id="f" overflow="visible">
   <path d="m0.5625-25.531h8.1719l6.8594 17.328 5.8281-17.328h8.1562l-10.734 27.953c-1.0742 2.832-2.3281 4.8164-3.7656 5.9531-1.4375 1.1328-3.3359 1.7031-5.6875 1.7031h-4.7188v-5.3594h2.5469c1.3828 0 2.3906-0.22656 3.0156-0.67188 0.63281-0.4375 1.1289-1.2266 1.4844-2.3594l0.21875-0.70312z"/>
  </symbol>
  <symbol id="b" overflow="visible">
   <path d="m3.9219-35.453h8.1562v35.453h-8.1562z"/>
  </symbol>
  <symbol id="l" overflow="visible">
   <path d="m13.062-27.391v20.766h3.1406c3.582 0 6.3164-0.89062 8.2031-2.6719 1.8945-1.7812 2.8438-4.3633 2.8438-7.75 0-3.375-0.94531-5.9414-2.8281-7.7031-1.875-1.7578-4.6172-2.6406-8.2188-2.6406zm-8.7812-6.6406h9.25c5.1641 0 9.0156 0.37109 11.547 1.1094 2.5312 0.74219 4.6953 1.9922 6.5 3.75 1.6016 1.5312 2.7891 3.3047 3.5625 5.3125 0.76953 2 1.1562 4.2734 1.1562 6.8125 0 2.5742-0.38672 4.8672-1.1562 6.875-0.77344 2.0117-1.9609 3.7812-3.5625 5.3125-1.8242 1.7734-4.0117 3.0273-6.5625 3.7656-2.5547 0.73047-6.3828 1.0938-11.484 1.0938h-9.25z"/>
  </symbol>
  <symbol id="k" overflow="visible">
   <path d="m16.062-20.312c-1.8047 0-3.1836 0.65234-4.1406 1.9531-0.94922 1.3047-1.4219 3.1797-1.4219 5.625 0 2.4492 0.47266 4.3242 1.4219 5.625 0.95703 1.293 2.3359 1.9375 4.1406 1.9375 1.7812 0 3.1406-0.64453 4.0781-1.9375 0.94531-1.3008 1.4219-3.1758 1.4219-5.625 0-2.4453-0.47656-4.3203-1.4219-5.625-0.9375-1.3008-2.2969-1.9531-4.0781-1.9531zm0-5.8281c4.3945 0 7.8281 1.1875 10.297 3.5625 2.4688 2.3672 3.7031 5.6484 3.7031 9.8438 0 4.1875-1.2344 7.4688-3.7031 9.8438-2.4688 2.3672-5.9023 3.5469-10.297 3.5469-4.4062 0-7.8555-1.1797-10.344-3.5469-2.4805-2.375-3.7188-5.6562-3.7188-9.8438 0-4.1953 1.2383-7.4766 3.7188-9.8438 2.4883-2.375 5.9375-3.5625 10.344-3.5625z"/>
  </symbol>
  <symbol id="j" overflow="visible">
   <path d="m2.6719-25.531h22.266v5.7031l-13.453 14h13.453v5.8281h-22.844v-5.7031l13.453-13.984h-12.875z"/>
  </symbol>
 </defs>
 <g>
  <path d="m228.67 7.4648-100.8 191.34 100.8-72.801z"/>
  <path d="m452.67 0h-205.34v135.33l-121.33 88.668v270.67c0 10.266 8.3984 18.668 18.668 18.668h204.4c-11.199-19.602-17.734-41.066-17.734-65.332 0-71.867 58.801-130.67 130.67-130.67 2.8008 0 6.5352 0 9.332 0.93359v-299.6c0-10.27-8.3984-18.668-18.664-18.668zm-158.67 401.33h-93.332v-18.668h93.332zm37.332-56h-130.66v-18.668h130.67zm65.336-56h-196v-18.668h196zm0-56h-168v-18.668h168zm0-56h-112v-18.668h112z"/>
  <path d="m462 336c-61.602 0-112 50.398-112 112s50.398 112 112 112 112-50.398 112-112-50.398-112-112-112zm34.535 146.54-34.535 34.531-34.535-34.535c-3.7344-3.7344-3.7344-9.332 0-13.066s9.332-3.7344 13.066 0l12.133 12.133 0.003907-98.93h18.668v98.934l12.133-12.133c3.7344-3.7344 9.332-3.7344 13.066 0 3.7305 3.7305 3.7305 9.332 0 13.066z"/>
 </g>
</svg>
