<?xml version="1.0" encoding="UTF-8"?>
<svg width="24" height="24" version="1.1" viewBox="0 0 700 700" fill="#ffffff" xmlns="http://www.w3.org/2000/svg">
 <path d="m233.33 0c-12.887 0-23.332 10.445-23.332 23.332v23.336h-23.332c-38.66 0-70 31.34-70 70v373.33c0 38.66 31.34 70 70 70h326.66c38.664 0 70-31.34 70-70v-373.33c0-38.66-31.336-70-70-70h-23.332v-23.336c0-12.887-10.445-23.332-23.332-23.332zm256.67 93.332v23.336c0 12.887-10.445 23.332-23.332 23.332h-233.34c-12.887 0-23.332-10.445-23.332-23.332v-23.336h-23.332c-12.887 0-23.336 10.449-23.336 23.336v373.33c0 12.887 10.449 23.332 23.336 23.332h326.66c12.887 0 23.336-10.445 23.336-23.332v-373.33c0-12.887-10.449-23.336-23.336-23.336zm-233.33 0v-46.664h186.66v46.664z" fill-rule="evenodd"/>
</svg>
