<?xml version="1.0" encoding="UTF-8"?>
<svg width="700pt" height="700pt" version="1.1" viewBox="0 0 700 700" fill="#fff" xmlns="http://www.w3.org/2000/svg">
 <path d="m210 525h280c15.465-0.015625 30.293-6.168 41.23-17.102 10.938-10.938 17.086-25.766 17.102-41.23v-284c0.046875-15.484-6.1055-30.34-17.09-41.254l-89.32-89.324c-10.914-10.977-25.766-17.129-41.246-17.09h-190.68c-15.465 0.015625-30.293 6.168-41.23 17.102-10.938 10.938-17.086 25.766-17.102 41.23v373.34c0.015625 15.465 6.1641 30.293 17.102 41.23 10.938 10.934 25.766 17.086 41.23 17.102zm198.33-465.73c6.4609 1.4375 12.383 4.668 17.09 9.3164l89.324 89.324c4.6797 4.6914 7.9219 10.621 9.3438 17.09h-80.758c-9.2773-0.011719-18.176-3.6992-24.734-10.262-6.5625-6.5625-10.254-15.457-10.266-24.738zm-233.33 34.062c0.011719-9.2773 3.6992-18.176 10.262-24.734 6.5625-6.5625 15.457-10.254 24.738-10.266h175v81.668c0.015625 15.465 6.168 30.293 17.102 41.23 10.938 10.938 25.766 17.086 41.23 17.102h81.668v268.34c-0.011719 9.2773-3.6992 18.176-10.262 24.734-6.5625 6.5625-15.457 10.254-24.738 10.266h-280c-9.2812-0.011719-18.176-3.7031-24.738-10.266-6.5625-6.5586-10.25-15.457-10.262-24.734zm96.75 264.92c-4.4219-4.5781-4.3555-11.855 0.14453-16.355s11.777-4.5625 16.352-0.14062l38.422 38.418 85.086-85.086h-0.003906c4.5781-4.4219 11.855-4.3594 16.355 0.14062s4.5625 11.777 0.14062 16.355l-93.332 93.332c-2.1875 2.1875-5.1523 3.418-8.2461 3.418s-6.0625-1.2305-8.25-3.418z"/>
</svg>
