<?xml version="1.0" encoding="UTF-8"?>
<svg width="700pt" height="700pt" version="1.1" fill="#fff" viewBox="0 0 700 700" xmlns="http://www.w3.org/2000/svg">
 <path d="m437.5 507.5c23.207 0 45.461-9.2188 61.871-25.629s25.629-38.664 25.629-61.871v-192.5c-0.007812-4.2539-1.5625-8.3594-4.375-11.551l-140-157.5c-3.332-3.7539-8.1055-5.9141-13.125-5.9492h-105c-23.207 0-45.461 9.2188-61.871 25.629s-25.629 38.664-25.629 61.871v280c0 23.207 9.2188 45.461 25.629 61.871s38.664 25.629 61.871 25.629zm-52.5-391.48 83.477 93.977h-65.977c-4.6406 0-9.0938-1.8438-12.375-5.125s-5.125-7.7344-5.125-12.375zm-122.5 128.98h52.5c6.2539 0 12.031 3.3359 15.156 8.75s3.125 12.086 0 17.5-8.9023 8.75-15.156 8.75h-52.5c-6.2539 0-12.031-3.3359-15.156-8.75s-3.125-12.086 0-17.5 8.9023-8.75 15.156-8.75zm0 70h140c6.2539 0 12.031 3.3359 15.156 8.75s3.125 12.086 0 17.5-8.9023 8.75-15.156 8.75h-140c-6.2539 0-12.031-3.3359-15.156-8.75s-3.125-12.086 0-17.5 8.9023-8.75 15.156-8.75zm-17.5 87.5c0-4.6406 1.8438-9.0938 5.125-12.375s7.7344-5.125 12.375-5.125h140c6.2539 0 12.031 3.3359 15.156 8.75s3.125 12.086 0 17.5-8.9023 8.75-15.156 8.75h-140c-4.6406 0-9.0938-1.8438-12.375-5.125s-5.125-7.7344-5.125-12.375z"/>
</svg>
