<?xml version="1.0" encoding="UTF-8"?>
<svg width="700pt" height="700pt" version="1.1" viewBox="0 0 700 700" fill="#fff" xmlns="http://www.w3.org/2000/svg" xmlns:xlink="http://www.w3.org/1999/xlink">
 <g>
  <path d="m572.32 381.08v98.422c0 1.9609-0.28125 3.7812-0.69922 5.4609-1.9609 9.6602-10.5 16.941-20.578 16.941l-402.22-0.003906c-10.781 0-19.738-8.2617-20.859-18.762-0.28125-1.2617-0.28125-2.3789-0.28125-3.7812v-98.422c0-11.621 9.5195-21 21-21 5.7383 0 11.059 2.3789 14.84 6.1602s6.1602 9.1016 6.1602 14.84v78.82h360.78v-78.82c0-11.621 9.5195-21 21-21 5.7383 0 11.059 2.3789 14.84 6.1602 3.6406 3.9258 6.0195 9.2461 6.0195 14.984z"/>
  <path d="m471.1 282.52-103.18 103.18c-0.14062 0.28125-0.42188 0.42188-0.55859 0.55859-3.7812 3.7812-8.6797 6.1602-13.578 6.8594-0.42188 0-0.83984 0.14062-1.2617 0.14062-0.83984 0.14063-1.6797 0.14063-2.5195 0.14063l-2.3789-0.14063c-0.42188 0-0.83984-0.14062-1.2617-0.14062-5.0391-0.69922-9.8008-3.0781-13.578-6.8594-0.14062-0.14062-0.42188-0.42187-0.55859-0.55859l-103.18-103.18c-4.7617-4.7617-7.1406-11.059-7.1406-17.359 0-6.3008 2.3789-12.602 7.1406-17.359 9.5195-9.5195 25.059-9.5195 34.719 0l62.02 62.02-0.003906-227.22c0-13.441 11.059-24.5 24.5-24.5 6.7188 0 12.879 2.8008 17.359 7.1406 4.4805 4.4805 7.1406 10.5 7.1406 17.359v227.22l62.02-62.02c9.5195-9.5195 25.059-9.5195 34.719 0 9.1016 9.6602 9.1016 25.199-0.41797 34.719z"/>
  <use x="70" y="581" xlink:href="#w"/>
  <use x="75.136719" y="581" xlink:href="#e"/>
  <use x="78.589844" y="581" xlink:href="#a"/>
  <use x="83.335938" y="581" xlink:href="#b"/>
  <use x="88.0625" y="581" xlink:href="#d"/>
  <use x="91.40625" y="581" xlink:href="#a"/>
  <use x="96.15625" y="581" xlink:href="#k"/>
  <use x="103.601562" y="581" xlink:href="#j"/>
  <use x="108.613281" y="581" xlink:href="#i"/>
  <use x="115.613281" y="581" xlink:href="#h"/>
  <use x="122.578125" y="581" xlink:href="#b"/>
  <use x="127.300781" y="581" xlink:href="#c"/>
  <use x="132.285156" y="581" xlink:href="#a"/>
  <use x="137.035156" y="581" xlink:href="#g"/>
  <use x="141.199219" y="581" xlink:href="#c"/>
  <use x="148.621094" y="581" xlink:href="#v"/>
  <use x="154.042969" y="581" xlink:href="#a"/>
  <use x="158.792969" y="581" xlink:href="#g"/>
  <use x="162.957031" y="581" xlink:href="#c"/>
  <use x="167.941406" y="581" xlink:href="#u"/>
  <use x="172.503906" y="581" xlink:href="#b"/>
  <use x="177.230469" y="581" xlink:href="#t"/>
  <use x="179.628906" y="581" xlink:href="#b"/>
  <use x="70" y="588" xlink:href="#s"/>
  <use x="73.046875" y="588" xlink:href="#e"/>
  <use x="76.496094" y="588" xlink:href="#f"/>
  <use x="81.308594" y="588" xlink:href="#r"/>
  <use x="91.039062" y="588" xlink:href="#d"/>
  <use x="94.382812" y="588" xlink:href="#c"/>
  <use x="99.367187" y="588" xlink:href="#a"/>
  <use x="106.550781" y="588" xlink:href="#q"/>
  <use x="112.410156" y="588" xlink:href="#f"/>
  <use x="117.21875" y="588" xlink:href="#p"/>
  <use x="122.203125" y="588" xlink:href="#o"/>
  <use x="129.625" y="588" xlink:href="#n"/>
  <use x="134.753906" y="588" xlink:href="#e"/>
  <use x="138.207031" y="588" xlink:href="#f"/>
  <use x="143.015625" y="588" xlink:href="#m"/>
  <use x="145.414062" y="588" xlink:href="#a"/>
  <use x="150.160156" y="588" xlink:href="#l"/>
  <use x="154.3125" y="588" xlink:href="#d"/>
 </g>
</svg>
