<?xml version="1.0" encoding="UTF-8"?>
<svg width="700pt" height="700pt" version="1.1" viewBox="0 0 700 700" fill="#fff" xmlns="http://www.w3.org/2000/svg" xmlns:xlink="http://www.w3.org/1999/xlink">
<g>
  <path d="m348.95 33.652c-1.207 0.10156-2.3867 0.39844-3.5 0.875l-18.898 8.3984-20.477-2.9766v0.003906c-3.0742-0.40625-6.1797 0.48047-8.5742 2.4492l-16.102 13.125-20.477 2.9766h0.003906c-3.0234 0.42578-5.7422 2.0703-7.5273 4.5508l-12.074 17.148-18.898 8.2266c-2.8203 1.2969-4.9727 3.7031-5.9492 6.6484l-7 19.602-16.102 13.125c-2.4102 2-3.8672 4.9219-4.0234 8.0508l-1.3984 20.824-12.074 16.977-0.003906-0.003906c-1.7695 2.5508-2.4023 5.7188-1.75 8.75l4.1992 20.477-6.8242 19.773c-1.0195 2.8672-0.83203 6.0273 0.52344 8.75l9.625 18.551-1.3984 20.824c-0.26172 3.0664 0.75391 6.1055 2.8008 8.4023l14.176 15.227 4.1992 20.477v-0.003906c0.59766 3.0469 2.4375 5.7109 5.0742 7.3516l17.848 10.852 1.0508 2.2734-70.523 127.05c-2.3281 4.1797-1.7383 9.3789 1.4609 12.938 3.2031 3.5547 8.3086 4.6836 12.715 2.8125l54.773-22.574 8.5742 61.25v-0.003906c0.71094 4.7266 4.3438 8.4805 9.043 9.3516 4.6992 0.86719 9.4297-1.3398 11.785-5.5l70.352-127.05h-0.003906c2.0938 0.69531 4.3477 0.75391 6.4766 0.17188l19.949-5.6016 19.949 5.6016c2.1289 0.58203 4.3828 0.52344 6.4766-0.17188l70.352 127.05h-0.003906c2.3555 4.1602 7.0859 6.3672 11.785 5.5 4.7031-0.86719 8.332-4.625 9.043-9.3516l8.5742-61.25 54.773 22.574v0.003906c4.4023 1.875 9.5117 0.74219 12.715-2.8125 3.1992-3.5586 3.7891-8.7578 1.4609-12.938l-70.523-127.05 1.0508-2.2734 17.676-10.852h-0.003906c2.7031-1.6055 4.6094-4.2734 5.25-7.3516l4.1992-20.477 14.176-15.227v0.003907c2.0469-2.2969 3.0586-5.3359 2.8008-8.4023l-1.3984-20.824 9.625-18.551c1.3555-2.7227 1.543-5.8828 0.52344-8.75l-6.8242-19.773 4.1992-20.477c0.60156-3.0547-0.09375-6.2266-1.9258-8.75l-11.898-16.977-1.3984-20.824-0.003906 0.003907c-0.15625-3.1289-1.6172-6.0508-4.0234-8.0508l-16.102-13.125-7-19.602c-0.97656-2.9453-3.1289-5.3516-5.9492-6.6484l-19.074-8.2266-11.898-17.148c-1.7852-2.4805-4.5039-4.125-7.5273-4.5508l-20.477-2.9766-16.102-13.125h0.003906c-2.3945-1.9688-5.5-2.8555-8.5742-2.4492l-20.477 2.9766-19.074-8.3984v-0.003906c-1.332-0.55859-2.7578-0.85547-4.1992-0.875-0.41016-0.019532-0.81641-0.019532-1.2266 0zm1.0508 51.449c71 0 128.8 57.797 128.8 128.8 0 71-57.801 128.8-128.8 128.8s-128.8-57.801-128.8-128.8 57.797-128.8 128.8-128.8z" fill-rule="evenodd"/>
  <use x="70" y="644" xlink:href="#t"/>
  <use x="90.550781" y="644" xlink:href="#d"/>
  <use x="104.359375" y="644" xlink:href="#a"/>
  <use x="123.347656" y="644" xlink:href="#f"/>
  <use x="142.242188" y="644" xlink:href="#c"/>
  <use x="155.628906" y="644" xlink:href="#a"/>
  <use x="174.617188" y="644" xlink:href="#k"/>
  <use x="204.410156" y="644" xlink:href="#j"/>
  <use x="224.453125" y="644" xlink:href="#i"/>
  <use x="252.453125" y="644" xlink:href="#e"/>
  <use x="262.046875" y="644" xlink:href="#h"/>
  <use x="278.648438" y="644" xlink:href="#b"/>
  <use x="297.882812" y="644" xlink:href="#g"/>
  <use x="317.816406" y="644" xlink:href="#a"/>
  <use x="336.804688" y="644" xlink:href="#s"/>
  <use x="353.472656" y="644" xlink:href="#e"/>
  <use x="363.070312" y="644" xlink:href="#f"/>
  <use x="70" y="672" xlink:href="#r"/>
  <use x="82.183594" y="672" xlink:href="#d"/>
  <use x="95.992188" y="672" xlink:href="#b"/>
  <use x="115.226562" y="672" xlink:href="#q"/>
  <use x="154.152344" y="672" xlink:href="#c"/>
  <use x="167.535156" y="672" xlink:href="#p"/>
  <use x="187.46875" y="672" xlink:href="#a"/>
  <use x="216.207031" y="672" xlink:href="#o"/>
  <use x="239.640625" y="672" xlink:href="#b"/>
  <use x="258.878906" y="672" xlink:href="#n"/>
  <use x="278.8125" y="672" xlink:href="#g"/>
  <use x="308.492188" y="672" xlink:href="#m"/>
  <use x="329.015625" y="672" xlink:href="#d"/>
  <use x="342.820312" y="672" xlink:href="#b"/>
  <use x="362.058594" y="672" xlink:href="#l"/>
  <use x="371.65625" y="672" xlink:href="#a"/>
  <use x="390.648438" y="672" xlink:href="#h"/>
  <use x="407.242188" y="672" xlink:href="#c"/>
 </g>
</svg>
