<?xml version="1.0" encoding="UTF-8"?>
<svg width="700pt" height="700pt" version="1.1" fill="#fff" viewBox="0 0 700 700" xmlns="http://www.w3.org/2000/svg" xmlns:xlink="http://www.w3.org/1999/xlink">
 <g>
  <path d="m567.28 154.56v170.24c30.238-13.441 51.52-47.039 51.52-85.121 0-38.074-21.281-71.676-51.52-85.117z"/>
  <path d="m242.48 339.36v-198.24c-25.762 1.1211-50.398 14.559-67.199 35.84h-34.723c-32.48 0-59.359 28-59.359 62.719s26.879 62.719 59.359 62.719h34.719c15.684 22.402 40.324 35.84 67.203 36.961z"/>
  <path d="m509.04 56c-86.238 50.398-166.88 78.398-245.28 84v201.6c73.922 7.8398 155.68 35.84 245.28 84 15.68 8.9609 34.719-3.3594 34.719-21.281l0.003907-327.04c1.1172-19.043-17.922-31.359-34.723-21.281z"/>
  <path d="m168.56 330.4v125.44c0 28 21.281 51.52 48.16 51.52s48.16-23.52 48.16-51.52v-91.84c-24.641-3.3594-60.48 1.1211-96.32-33.602z"/>
  <use x="70" y="728" xlink:href="#l"/>
  <use x="111.097656" y="728" xlink:href="#c"/>
  <use x="138.714844" y="728" xlink:href="#a"/>
  <use x="176.695312" y="728" xlink:href="#h"/>
  <use x="214.484375" y="728" xlink:href="#b"/>
  <use x="241.253906" y="728" xlink:href="#a"/>
  <use x="279.234375" y="728" xlink:href="#g"/>
  <use x="338.816406" y="728" xlink:href="#f"/>
  <use x="378.902344" y="728" xlink:href="#e"/>
  <use x="434.902344" y="728" xlink:href="#d"/>
  <use x="478.242188" y="728" xlink:href="#a"/>
  <use x="516.222656" y="728" xlink:href="#k"/>
  <use x="549.417969" y="728" xlink:href="#b"/>
  <use x="576.1875" y="728" xlink:href="#j"/>
  <use x="614.660156" y="728" xlink:href="#c"/>
  <use x="642.277344" y="728" xlink:href="#i"/>
 </g>
</svg>
