<?xml version="1.0" encoding="UTF-8"?>
<svg width="700pt" height="700pt" version="1.1" viewBox="0 0 700 700" fill="#fff" xmlns="http://www.w3.org/2000/svg">
 <path d="m455 140v-52.5c0-28.98-23.52-52.5-52.5-52.5h-210c-28.98 0-52.5 23.52-52.5 52.5v385c0 28.98 23.52 52.5 52.5 52.5h210c28.98 0 52.5-23.52 52.5-52.5v-52.5c0-9.6602-7.8398-17.5-17.5-17.5s-17.5 7.8398-17.5 17.5v52.5c0 9.6602-7.8398 17.5-17.5 17.5h-210c-9.6602 0-17.5-7.8398-17.5-17.5v-385c0-9.6602 7.8398-17.5 17.5-17.5h210c9.6602 0 17.5 7.8398 17.5 17.5v52.5c0 9.6602 7.8398 17.5 17.5 17.5s17.5-7.8398 17.5-17.5zm-227.5 315h87.5c9.6602 0 17.5-7.8398 17.5-17.5s-7.8398-17.5-17.5-17.5h-87.5c-9.6602 0-17.5 7.8398-17.5 17.5s7.8398 17.5 17.5 17.5zm322.25-213.01c13.668-13.664 13.668-35.82 0-49.488l-24.746-24.746c-13.668-13.668-35.824-13.668-49.488 0l-155.38 155.37c-3.293 3.2891-5.1289 7.7344-5.1289 12.391v49.488c0 9.6602 7.8398 17.5 17.5 17.5h49.488c4.6562 0 9.1016-1.8359 12.391-5.1289zm-322.25 143.01h35c9.6602 0 17.5-7.8398 17.5-17.5s-7.8398-17.5-17.5-17.5h-35c-9.6602 0-17.5 7.8398-17.5 17.5s7.8398 17.5 17.5 17.5zm220.25-140 24.746 24.746-97.754 97.754h-24.746v-24.746zm-220.25 35h70c9.6602 0 17.5-7.8398 17.5-17.5s-7.8398-17.5-17.5-17.5h-70c-9.6602 0-17.5 7.8398-17.5 17.5s7.8398 17.5 17.5 17.5zm245-59.746 27.754-27.754 24.746 24.746-27.754 27.754zm-245-10.254h140c9.6602 0 17.5-7.8398 17.5-17.5s-7.8398-17.5-17.5-17.5h-140c-9.6602 0-17.5 7.8398-17.5 17.5s7.8398 17.5 17.5 17.5zm0-70h140c9.6602 0 17.5-7.8398 17.5-17.5s-7.8398-17.5-17.5-17.5h-140c-9.6602 0-17.5 7.8398-17.5 17.5s7.8398 17.5 17.5 17.5z" fill-rule="evenodd"/>
</svg>
