<?xml version="1.0" encoding="UTF-8"?>
<svg width="24" height="24" version="1.1" viewBox="0 0 700 700" fill="#ffffff" xmlns="http://www.w3.org/2000/svg" xmlns:xlink="http://www.w3.org/1999/xlink">
 <g>
  <path d="m512.4 35.672h-288.4c-14.852 0-29.098 5.8984-39.598 16.402-10.504 10.5-16.402 24.746-16.402 39.598v14.727h-19.602c-8 0-15.395 4.2695-19.398 11.203-4 6.9297-4 15.469 0 22.398 4.0039 6.9297 11.398 11.199 19.398 11.199h19.602v56h-19.602c-8 0-15.395 4.2695-19.398 11.199-4 6.9336-4 15.473 0 22.402 4.0039 6.9297 11.398 11.199 19.398 11.199h19.602v56h-19.602c-8 0-15.395 4.2695-19.398 11.199-4 6.9297-4 15.469 0 22.402 4.0039 6.9297 11.398 11.199 19.398 11.199h19.602v56h-19.602c-8 0-15.395 4.2695-19.398 11.199-4 6.9297-4 15.469 0 22.398 4.0039 6.9336 11.398 11.203 19.398 11.203h19.602v14.727c0 14.852 5.8984 29.098 16.402 39.598 10.5 10.504 24.746 16.402 39.598 16.402h288.4c16.34 0 32.008-6.4883 43.559-18.043 11.555-11.551 18.043-27.219 18.043-43.559v-365.45c0-16.34-6.4883-32.008-18.043-43.559-11.551-11.555-27.219-18.043-43.559-18.043zm-299.6 432.6v-14.672h19.598c8.0039 0 15.398-4.2695 19.402-11.203 4-6.9297 4-15.469 0-22.398-4.0039-6.9297-11.398-11.199-19.402-11.199h-19.598v-56h19.598c8.0039 0 15.398-4.2695 19.402-11.199 4-6.9336 4-15.473 0-22.402-4.0039-6.9297-11.398-11.199-19.402-11.199h-19.598v-56h19.598c8.0039 0 15.398-4.2695 19.402-11.199 4-6.9297 4-15.469 0-22.402-4.0039-6.9297-11.398-11.199-19.402-11.199h-19.598v-56h19.598c8.0039 0 15.398-4.2695 19.402-11.199 4-6.9297 4-15.469 0-22.398-4.0039-6.9336-11.398-11.203-19.402-11.203h-19.598v-14.727c0-6.1836 5.0117-11.199 11.199-11.199h207.2v399h-207.2c-6.1875 0-11.199-5.0156-11.199-11.199zm316.4-5.6016c0 4.457-1.7695 8.7305-4.918 11.879-3.1523 3.1523-7.4258 4.9219-11.883 4.9219h-36.398v-399h36.398c4.457 0 8.7305 1.7695 11.883 4.9219 3.1484 3.1484 4.918 7.4219 4.918 11.879z"/>
  <use x="70" y="644" xlink:href="#u"/>
  <use x="90.550781" y="644" xlink:href="#c"/>
  <use x="104.359375" y="644" xlink:href="#a"/>
  <use x="123.347656" y="644" xlink:href="#e"/>
  <use x="142.242188" y="644" xlink:href="#b"/>
  <use x="155.628906" y="644" xlink:href="#a"/>
  <use x="174.617188" y="644" xlink:href="#j"/>
  <use x="204.410156" y="644" xlink:href="#i"/>
  <use x="224.453125" y="644" xlink:href="#h"/>
  <use x="252.453125" y="644" xlink:href="#g"/>
  <use x="274.011719" y="644" xlink:href="#e"/>
  <use x="292.90625" y="644" xlink:href="#f"/>
  <use x="302.503906" y="644" xlink:href="#t"/>
  <use x="312.101562" y="644" xlink:href="#s"/>
  <use x="330.351562" y="644" xlink:href="#a"/>
  <use x="70" y="672" xlink:href="#r"/>
  <use x="82.183594" y="672" xlink:href="#c"/>
  <use x="95.992188" y="672" xlink:href="#d"/>
  <use x="115.226562" y="672" xlink:href="#q"/>
  <use x="154.152344" y="672" xlink:href="#b"/>
  <use x="167.535156" y="672" xlink:href="#p"/>
  <use x="187.46875" y="672" xlink:href="#a"/>
  <use x="216.207031" y="672" xlink:href="#o"/>
  <use x="239.640625" y="672" xlink:href="#d"/>
  <use x="258.878906" y="672" xlink:href="#n"/>
  <use x="278.8125" y="672" xlink:href="#m"/>
  <use x="308.492188" y="672" xlink:href="#l"/>
  <use x="329.015625" y="672" xlink:href="#c"/>
  <use x="342.820312" y="672" xlink:href="#d"/>
  <use x="362.058594" y="672" xlink:href="#f"/>
  <use x="371.65625" y="672" xlink:href="#a"/>
  <use x="390.648438" y="672" xlink:href="#k"/>
  <use x="407.242188" y="672" xlink:href="#b"/>
 </g>
</svg>
