<?xml version="1.0" encoding="UTF-8"?>
<svg width="24" height="24" version="1.1" viewBox="0 0 700 700" fill="#000000" xmlns="http://www.w3.org/2000/svg" xmlns:xlink="http://www.w3.org/1999/xlink">
 <g>
  <path d="m517.01 7.2891h-334.42c-57.629 0-104.5 47.051-104.5 104.9v335.68c0 57.844 46.879 104.9 104.5 104.9h334.41c57.629 0 104.5-47.055 104.5-104.9l0.003906-335.68c0-57.848-46.879-104.9-104.5-104.9zm62.703 440.57c0 34.707-28.125 62.938-62.703 62.938l-334.42 0.003906c-34.578 0-62.703-28.23-62.703-62.938v-335.68c0-34.711 28.125-62.938 62.703-62.938h334.41c34.578 0 62.703 28.23 62.703 62.938v335.67zm-47.82-309.43c-9.2852-9.4062-23.672-9.4062-32.957 0l-206.56 224.26-94.695-96.535c-4.6406-4.9492-10.211-7.4258-16.711-6.9297-6.0352 0-12.07 2.9688-16.246 7.9219-4.1758 4.457-6.5 10.891-6.5 17.328s2.7852 12.871 7.4258 17.328l111.4 112.87c4.1758 4.457 10.211 6.9297 16.246 6.9297 6.5 0 12.531-2.4766 16.711-6.9297l222.8-241.09c4.6406-4.9492 6.9609-11.387 6.9609-18.316-0.91797-6.4375-3.2422-12.379-7.8828-16.836z"/>
  <use x="70" y="569.332031" xlink:href="#u"/>
  <use x="72.28125" y="569.332031" xlink:href="#b"/>
  <use x="73.816406" y="569.332031" xlink:href="#a"/>
  <use x="75.925781" y="569.332031" xlink:href="#f"/>
  <use x="78.027344" y="569.332031" xlink:href="#c"/>
  <use x="79.515625" y="569.332031" xlink:href="#a"/>
  <use x="81.625" y="569.332031" xlink:href="#i"/>
  <use x="84.933594" y="569.332031" xlink:href="#h"/>
  <use x="87.160156" y="569.332031" xlink:href="#g"/>
  <use x="90.273438" y="569.332031" xlink:href="#f"/>
  <use x="92.371094" y="569.332031" xlink:href="#e"/>
  <use x="93.4375" y="569.332031" xlink:href="#b"/>
  <use x="94.972656" y="569.332031" xlink:href="#t"/>
  <use x="96.039063" y="569.332031" xlink:href="#s"/>
  <use x="98.265625" y="569.332031" xlink:href="#a"/>
  <use x="100.375" y="569.332031" xlink:href="#e"/>
  <use x="70" y="572.445312" xlink:href="#r"/>
  <use x="71.351562" y="572.445312" xlink:href="#b"/>
  <use x="72.886719" y="572.445312" xlink:href="#d"/>
  <use x="75.023438" y="572.445312" xlink:href="#q"/>
  <use x="79.351562" y="572.445312" xlink:href="#c"/>
  <use x="80.835938" y="572.445312" xlink:href="#p"/>
  <use x="83.050781" y="572.445312" xlink:href="#a"/>
  <use x="86.246094" y="572.445312" xlink:href="#o"/>
  <use x="88.847656" y="572.445312" xlink:href="#d"/>
  <use x="90.984375" y="572.445312" xlink:href="#n"/>
  <use x="93.203125" y="572.445312" xlink:href="#m"/>
  <use x="96.5" y="572.445312" xlink:href="#l"/>
  <use x="98.78125" y="572.445312" xlink:href="#b"/>
  <use x="100.3125" y="572.445312" xlink:href="#d"/>
  <use x="102.449219" y="572.445312" xlink:href="#k"/>
  <use x="103.515625" y="572.445312" xlink:href="#a"/>
  <use x="105.628906" y="572.445312" xlink:href="#j"/>
  <use x="107.472656" y="572.445312" xlink:href="#c"/>
 </g>
</svg>
