<?xml version="1.0" encoding="UTF-8"?>
<svg width="700pt" height="700pt" version="1.1" viewBox="0 0 700 700" fill="#fff" xmlns="http://www.w3.org/2000/svg">
 <g>
  <path d="m437.5 507.5c23.199-0.027344 45.438-9.2539 61.84-25.66 16.406-16.402 25.633-38.641 25.66-61.84v-210c0-0.36719-0.19141-0.69922-0.21094-1.0859-0.10156-1.543-0.40625-3.0664-0.91016-4.5312-0.19141-0.55859-0.33203-1.0859-0.57812-1.6289-0.85156-1.9023-2.0352-3.6406-3.5-5.125l-140-140c-1.4844-1.4648-3.2227-2.6484-5.125-3.5-0.54297-0.24609-1.0664-0.38672-1.6289-0.57812-1.4648-0.50391-2.9883-0.80859-4.5312-0.91016-0.31641 0.050781-0.64844-0.14062-1.0156-0.14062h-105c-23.199 0.027344-45.438 9.2539-61.84 25.66-16.406 16.402-25.633 38.641-25.66 61.84v280c0.027344 23.199 9.2539 45.438 25.66 61.84 16.402 16.406 38.641 25.633 61.84 25.66zm27.754-315h-80.254v-80.254zm-255.25 227.5v-280c0-13.926 5.5312-27.277 15.375-37.125 9.8477-9.8438 23.199-15.375 37.125-15.375h87.5v122.5c0 4.6406 1.8438 9.0938 5.125 12.375s7.7344 5.125 12.375 5.125h122.5v192.5c0 13.926-5.5312 27.277-15.375 37.125-9.8477 9.8438-23.199 15.375-37.125 15.375h-175c-13.926 0-27.277-5.5312-37.125-15.375-9.8438-9.8477-15.375-23.199-15.375-37.125z"/>
  <path d="m280 297.5h140c6.2539 0 12.031-3.3359 15.156-8.75s3.125-12.086 0-17.5-8.9023-8.75-15.156-8.75h-140c-6.2539 0-12.031 3.3359-15.156 8.75s-3.125 12.086 0 17.5 8.9023 8.75 15.156 8.75z"/>
  <path d="m280 367.5h140c6.2539 0 12.031-3.3359 15.156-8.75s3.125-12.086 0-17.5-8.9023-8.75-15.156-8.75h-140c-6.2539 0-12.031 3.3359-15.156 8.75s-3.125 12.086 0 17.5 8.9023 8.75 15.156 8.75z"/>
  <path d="m280 437.5h140c6.2539 0 12.031-3.3359 15.156-8.75s3.125-12.086 0-17.5-8.9023-8.75-15.156-8.75h-140c-6.2539 0-12.031 3.3359-15.156 8.75s-3.125 12.086 0 17.5 8.9023 8.75 15.156 8.75z"/>
 </g>
</svg>
