<?xml version="1.0" encoding="UTF-8"?>
<svg width="700pt" height="700pt" version="1.1" viewBox="0 0 700 700" fill="#fff" xmlns="http://www.w3.org/2000/svg">
 <path d="m350 396.67c-5.9727 0-11.945-2.2852-16.496-6.8359l-70-70c-9.125-9.125-9.125-23.871 0-32.992 9.125-9.125 23.871-9.125 32.992 0l53.504 53.504 53.504-53.504c9.125-9.125 23.871-9.125 32.992 0 9.125 9.125 9.125 23.871 0 32.992l-70 70c-4.5508 4.5508-10.523 6.8359-16.496 6.8359zm0 0c-12.879 0-23.332-10.43-23.332-23.332v-140c0-12.879 10.453-23.332 23.332-23.332s23.332 10.453 23.332 23.332v140c0 12.902-10.453 23.332-23.332 23.332zm93.332 70h-186.67c-12.879 0-23.332-10.43-23.332-23.332 0-12.902 10.453-23.332 23.332-23.332h186.67c12.902 0 23.332 10.43 23.332 23.332 0 12.902-10.43 23.332-23.332 23.332zm89.25 93.332h-365.14c-28 0-50.773-22.004-50.773-49.07v-367.83c0-6.2773 2.5195-12.297 7.0234-16.684l122.5-119.77c4.3633-4.2461 10.219-6.6484 16.309-6.6484h270.08c27.977 0 50.75 21.98 50.75 49.023v461.98c0 27.02-22.773 49-50.75 49zm-369.25-407.07v358c0 0.86328 1.5625 2.4023 4.1055 2.4023h365.14c2.543 0 4.082-1.5156 4.082-2.3555v-461.95c0-0.83984-1.5391-2.3555-4.082-2.3555h-260.56l-108.69 106.26zm116.67 33.742h-85.562c-12.879 0-23.332-10.453-23.332-23.332 0-12.879 10.453-23.332 23.332-23.332h62.23v-62.23c0-12.879 10.453-23.332 23.332-23.332s23.332 10.453 23.332 23.332v85.562c0 12.879-10.453 23.332-23.332 23.332z"/>
</svg>
