<?xml version="1.0" encoding="UTF-8"?>
<svg width="700pt" height="700pt" version="1.1" fill="#fff" viewBox="0 0 700 700" xmlns="http://www.w3.org/2000/svg">
 <path d="m198.33 93.332h233.34c12.887 0 23.332 10.449 23.332 23.336v46.664h46.668v-46.664c0-38.66-31.34-70-70-70h-233.34c-38.66 0-70 31.34-70 70v326.66c0 38.664 31.34 70 70 70h116.67v-46.664h-116.67c-12.887 0-23.332-10.449-23.332-23.336v-326.66c0-12.887 10.445-23.336 23.332-23.336zm23.336 70c0-12.887 10.445-23.332 23.332-23.332h140c12.887 0 23.332 10.445 23.332 23.332s-10.445 23.336-23.332 23.336h-140c-12.887 0-23.332-10.449-23.332-23.336zm0 93.336c0-12.887 10.445-23.336 23.332-23.336h140c12.887 0 23.332 10.449 23.332 23.336s-10.445 23.332-23.332 23.332h-140c-12.887 0-23.332-10.445-23.332-23.332zm23.332 70c-12.887 0-23.332 10.445-23.332 23.332s10.445 23.332 23.332 23.332h70c12.887 0 23.332-10.445 23.332-23.332s-10.445-23.332-23.332-23.332zm305.93-117.63c-30.758-16.977-69.449-5.8086-86.43 24.945l-88.66 160.6c-1.9219 3.4883-2.9219 7.4062-2.9023 11.387l0.38672 84.141c0.039062 8.5234 4.7188 16.344 12.211 20.406 7.4922 4.0625 16.602 3.7148 23.766-0.90234l70.129-45.211c3.2461-2.0938 5.9219-4.957 7.7852-8.3359l88.656-160.6c16.98-30.758 5.8086-69.453-24.941-86.43zm-45.574 47.5c4.5234-8.1914 14.828-11.164 23.02-6.6445 8.1875 4.5195 11.164 14.828 6.6406 23.02l-85.812 155.45-29.41 18.961-0.16016-35.5z" fill-rule="evenodd"/>
</svg>
